  0
SECTION
  2
HEADER
  9
$ACADVER
  1
AC1014
  9
$ACADMAINTVER
 70
     9
  9
$DWGCODEPAGE
  3
ANSI_1252
  9
$INSBASE
 10
0.0
 20
0.0
 30
0.0
  9
$EXTMIN
 10
1.000000000000000E+20
 20
1.000000000000000E+20
 30
1.000000000000000E+20
  9
$EXTMAX
 10
-1.000000000000000E+20
 20
-1.000000000000000E+20
 30
-1.000000000000000E+20
  9
$LIMMIN
 10
0.0
 20
0.0
  9
$LIMMAX
 10
12.0
 20
9.0
  9
$ORTHOMODE
 70
     0
  9
$REGENMODE
 70
     1
  9
$FILLMODE
 70
     1
  9
$QTEXTMODE
 70
     0
  9
$MIRRTEXT
 70
     1
  9
$DRAGMODE
 70
     2
  9
$LTSCALE
 40
1.0
  9
$OSMODE
 70
    37
  9
$ATTMODE
 70
     1
  9
$TEXTSIZE
 40
0.2
  9
$TRACEWID
 40
0.05
  9
$TEXTSTYLE
  7
STANDARD
  9
$CLAYER
  8
0
  9
$CELTYPE
  6
BYLAYER
  9
$CECOLOR
 62
   256
  9
$CELTSCALE
 40
1.0
  9
$DELOBJ
 70
     1
  9
$DISPSILH
 70
     0
  9
$DIMSCALE
 40
1.0
  9
$DIMASZ
 40
0.18
  9
$DIMEXO
 40
0.0625
  9
$DIMDLI
 40
0.38
  9
$DIMRND
 40
0.0
  9
$DIMDLE
 40
0.0
  9
$DIMEXE
 40
0.18
  9
$DIMTP
 40
0.0
  9
$DIMTM
 40
0.0
  9
$DIMTXT
 40
0.18
  9
$DIMCEN
 40
0.09
  9
$DIMTSZ
 40
0.0
  9
$DIMTOL
 70
     0
  9
$DIMLIM
 70
     0
  9
$DIMTIH
 70
     1
  9
$DIMTOH
 70
     1
  9
$DIMSE1
 70
     0
  9
$DIMSE2
 70
     0
  9
$DIMTAD
 70
     0
  9
$DIMZIN
 70
     0
  9
$DIMBLK
  1

  9
$DIMASO
 70
     1
  9
$DIMSHO
 70
     1
  9
$DIMPOST
  1

  9
$DIMAPOST
  1

  9
$DIMALT
 70
     0
  9
$DIMALTD
 70
     2
  9
$DIMALTF
 40
25.4
  9
$DIMLFAC
 40
1.0
  9
$DIMTOFL
 70
     0
  9
$DIMTVP
 40
0.0
  9
$DIMTIX
 70
     0
  9
$DIMSOXD
 70
     0
  9
$DIMSAH
 70
     0
  9
$DIMBLK1
  1

  9
$DIMBLK2
  1

  9
$DIMSTYLE
  2
STANDARD
  9
$DIMCLRD
 70
     0
  9
$DIMCLRE
 70
     0
  9
$DIMCLRT
 70
     0
  9
$DIMTFAC
 40
1.0
  9
$DIMGAP
 40
0.09
  9
$DIMJUST
 70
     0
  9
$DIMSD1
 70
     0
  9
$DIMSD2
 70
     0
  9
$DIMTOLJ
 70
     1
  9
$DIMTZIN
 70
     0
  9
$DIMALTZ
 70
     0
  9
$DIMALTTZ
 70
     0
  9
$DIMFIT
 70
     3
  9
$DIMUPT
 70
     0
  9
$DIMUNIT
 70
     2
  9
$DIMDEC
 70
     4
  9
$DIMTDEC
 70
     4
  9
$DIMALTU
 70
     2
  9
$DIMALTTD
 70
     2
  9
$DIMTXSTY
  7
STANDARD
  9
$DIMAUNIT
 70
     0
  9
$LUNITS
 70
     2
  9
$LUPREC
 70
     4
  9
$SKETCHINC
 40
0.1
  9
$FILLETRAD
 40
0.5
  9
$AUNITS
 70
     0
  9
$AUPREC
 70
     0
  9
$MENU
  1
.
  9
$ELEVATION
 40
0.0
  9
$PELEVATION
 40
0.0
  9
$THICKNESS
 40
0.0
  9
$LIMCHECK
 70
     0
  9
$CHAMFERA
 40
0.0
  9
$CHAMFERB
 40
0.0
  9
$CHAMFERC
 40
0.0
  9
$CHAMFERD
 40
0.0
  9
$SKPOLY
 70
     0
  9
$TDCREATE
 40
2456986.609766713
  9
$TDUPDATE
 40
2456986.609766898
  9
$TDINDWG
 40
0.0000000116
  9
$TDUSRTIMER
 40
0.0000000116
  9
$USRTIMER
 70
     1
  9
$ANGBASE
 50
0.0
  9
$ANGDIR
 70
     0
  9
$PDMODE
 70
     0
  9
$PDSIZE
 40
0.0
  9
$PLINEWID
 40
0.0
  9
$COORDS
 70
     1
  9
$SPLFRAME
 70
     0
  9
$SPLINETYPE
 70
     6
  9
$SPLINESEGS
 70
     8
  9
$ATTDIA
 70
     0
  9
$ATTREQ
 70
     1
  9
$HANDLING
 70
     1
  9
$HANDSEED
  5
1EB
  9
$SURFTAB1
 70
     6
  9
$SURFTAB2
 70
     6
  9
$SURFTYPE
 70
     6
  9
$SURFU
 70
     6
  9
$SURFV
 70
     6
  9
$UCSNAME
  2

  9
$UCSORG
 10
0.0
 20
0.0
 30
0.0
  9
$UCSXDIR
 10
1.0
 20
0.0
 30
0.0
  9
$UCSYDIR
 10
0.0
 20
1.0
 30
0.0
  9
$PUCSNAME
  2

  9
$PUCSORG
 10
0.0
 20
0.0
 30
0.0
  9
$PUCSXDIR
 10
1.0
 20
0.0
 30
0.0
  9
$PUCSYDIR
 10
0.0
 20
1.0
 30
0.0
  9
$USERI1
 70
     0
  9
$USERI2
 70
     0
  9
$USERI3
 70
     0
  9
$USERI4
 70
     0
  9
$USERI5
 70
     0
  9
$USERR1
 40
0.0
  9
$USERR2
 40
0.0
  9
$USERR3
 40
0.0
  9
$USERR4
 40
0.0
  9
$USERR5
 40
0.0
  9
$WORLDVIEW
 70
     1
  9
$SHADEDGE
 70
     3
  9
$SHADEDIF
 70
    70
  9
$TILEMODE
 70
     1
  9
$MAXACTVP
 70
    64
  9
$PINSBASE
 10
0.0
 20
0.0
 30
0.0
  9
$PLIMCHECK
 70
     0
  9
$PEXTMIN
 10
1.000000000000000E+20
 20
1.000000000000000E+20
 30
1.000000000000000E+20
  9
$PEXTMAX
 10
-1.000000000000000E+20
 20
-1.000000000000000E+20
 30
-1.000000000000000E+20
  9
$PLIMMIN
 10
0.0
 20
0.0
  9
$PLIMMAX
 10
12.0
 20
9.0
  9
$UNITMODE
 70
     0
  9
$VISRETAIN
 70
     1
  9
$PLINEGEN
 70
     0
  9
$PSLTSCALE
 70
     1
  9
$TREEDEPTH
 70
  3020
  9
$PICKSTYLE
 70
     1
  9
$CMLSTYLE
  2
STANDARD
  9
$CMLJUST
 70
     0
  9
$CMLSCALE
 40
1.0
  9
$PROXYGRAPHICS
 70
     1
  9
$MEASUREMENT
 70
     1
  0
ENDSEC
  0
SECTION
  2
CLASSES
  0
CLASS
  1
ACDBDICTIONARYWDFLT
  2
AcDbDictionaryWithDefault
  3
ObjectDBX Classes
 90
        0
280
     0
281
     0
  0
CLASS
  1
VISUALSTYLE
  2
AcDbVisualStyle
  3
ObjectDBX Classes
 90
     4095
280
     0
281
     0
  0
CLASS
  1
MATERIAL
  2
AcDbMaterial
  3
ObjectDBX Classes
 90
     1153
280
     0
281
     0
  0
CLASS
  1
SCALE
  2
AcDbScale
  3
ObjectDBX Classes
 90
     1153
280
     0
281
     0
  0
CLASS
  1
SUN
  2
AcDbSun
  3
SCENEOE
 90
     1153
280
     0
281
     0
  0
CLASS
  1
DICTIONARYVAR
  2
AcDbDictionaryVar
  3
ObjectDBX Classes
 90
        0
280
     0
281
     0
  0
CLASS
  1
XRECORD
  2
AcDbXrecord
  3
ObjectDBX Classes
 90
        0
280
     0
281
     0
  0
CLASS
  1
LWPOLYLINE
  2
AcDbPolyline
  3
ObjectDBX Classes
 90
        0
280
     0
281
     1
  0
CLASS
  1
HATCH
  2
AcDbHatch
  3
ObjectDBX Classes
 90
        0
280
     0
281
     1
  0
CLASS
  1
ACDBPLACEHOLDER
  2
AcDbPlaceHolder
  3
ObjectDBX Classes
 90
        0
280
     0
281
     0
  0
CLASS
  1
LAYOUT
  2
AcDbLayout
  3
ObjectDBX Classes
 90
        0
280
     0
281
     0
  0
ENDSEC
  0
SECTION
  2
TABLES
  0
TABLE
  2
VPORT
  5
8
102
{ACAD_XDICTIONARY
360
1E1
102
}
330
0
100
AcDbSymbolTable
 70
     1
  0
VPORT
  5
29
330
8
100
AcDbSymbolTableRecord
100
AcDbViewportTableRecord
  2
*ACTIVE
 70
     0
 10
0.0
 20
0.0
 11
1.0
 21
1.0
 12
0.0
 22
0.0
 13
0.0
 23
0.0
 14
0.5
 24
0.5
 15
0.5
 25
0.5
 16
0.0
 26
0.0
 36
1.0
 17
0.0
 27
0.0
 37
-1000.0
 40
36.83600174753288
 41
2.146478873239436
 42
50.0
 43
55.03576315757901
 44
95.20593274815212
 50
0.0
 51
0.0
 71
     0
 72
   100
 73
     1
 74
     3
 75
     0
 76
     0
 77
     0
 78
     0
  0
ENDTAB
  0
TABLE
  2
LTYPE
  5
5
330
0
100
AcDbSymbolTable
 70
     1
  0
LTYPE
  5
14
330
5
100
AcDbSymbolTableRecord
100
AcDbLinetypeTableRecord
  2
BYBLOCK
 70
     0
  3

 72
    65
 73
     0
 40
0.0
  0
LTYPE
  5
15
330
5
100
AcDbSymbolTableRecord
100
AcDbLinetypeTableRecord
  2
BYLAYER
 70
     0
  3

 72
    65
 73
     0
 40
0.0
  0
LTYPE
  5
16
330
5
100
AcDbSymbolTableRecord
100
AcDbLinetypeTableRecord
  2
CONTINUOUS
 70
     0
  3
Solid line
 72
    65
 73
     0
 40
0.0
  0
ENDTAB
  0
TABLE
  2
LAYER
  5
2
330
0
100
AcDbSymbolTable
 70
     3
  0
LAYER
  5
10
330
2
100
AcDbSymbolTableRecord
100
AcDbLayerTableRecord
  2
0
 70
     0
 62
     7
  6
CONTINUOUS
  0
LAYER
  5
6A
330
2
100
AcDbSymbolTableRecord
100
AcDbLayerTableRecord
  2
PROFILEEDGES
 70
     0
 62
     7
  6
CONTINUOUS
  0
LAYER
  5
6B
330
2
100
AcDbSymbolTableRecord
100
AcDbLayerTableRecord
  2
SECTIONCUTEDGES
 70
     0
 62
     7
  6
CONTINUOUS
  0
ENDTAB
  0
TABLE
  2
STYLE
  5
3
330
0
100
AcDbSymbolTable
 70
     1
  0
STYLE
  5
11
330
3
100
AcDbSymbolTableRecord
100
AcDbTextStyleTableRecord
  2
STANDARD
 70
     0
 40
0.0
 41
1.0
 50
0.0
 71
     0
 42
0.2
  3
txt
  4

  0
ENDTAB
  0
TABLE
  2
VIEW
  5
6
330
0
100
AcDbSymbolTable
 70
     0
  0
ENDTAB
  0
TABLE
  2
UCS
  5
7
330
0
100
AcDbSymbolTable
 70
     0
  0
ENDTAB
  0
TABLE
  2
APPID
  5
9
330
0
100
AcDbSymbolTable
 70
     1
  0
APPID
  5
12
330
9
100
AcDbSymbolTableRecord
100
AcDbRegAppTableRecord
  2
ACAD
 70
     0
  0
ENDTAB
  0
TABLE
  2
DIMSTYLE
  5
A
330
0
100
AcDbSymbolTable
 70
     1
  0
DIMSTYLE
105
27
330
A
100
AcDbSymbolTableRecord
100
AcDbDimStyleTableRecord
  2
STANDARD
 70
     0
  3

  4

  5

  6

  7

 40
1.0
 41
0.18
 42
0.0625
 43
0.38
 44
0.18
 45
0.0
 46
0.0
 47
0.0
 48
0.0
140
0.18
141
0.09
142
0.0
143
25.4
144
1.0
145
0.0
146
1.0
147
0.09
 71
     0
 72
     0
 73
     1
 74
     1
 75
     0
 76
     0
 77
     0
 78
     0
170
     0
171
     2
172
     0
173
     0
174
     0
175
     0
176
     0
177
     0
178
     0
270
     2
271
     4
272
     4
273
     2
274
     2
340
11
275
     0
280
     0
281
     0
282
     0
283
     1
284
     0
285
     0
286
     0
287
     3
288
     0
  0
ENDTAB
  0
TABLE
  2
BLOCK_RECORD
  5
1
330
0
100
AcDbSymbolTable
 70
     1
  0
BLOCK_RECORD
  5
1F
330
1
100
AcDbSymbolTableRecord
100
AcDbBlockTableRecord
  2
*MODEL_SPACE
  0
BLOCK_RECORD
  5
1B
330
1
100
AcDbSymbolTableRecord
100
AcDbBlockTableRecord
  2
*PAPER_SPACE
  0
ENDTAB
  0
ENDSEC
  0
SECTION
  2
BLOCKS
  0
BLOCK
  5
20
330
1F
100
AcDbEntity
  8
0
100
AcDbBlockBegin
  2
*MODEL_SPACE
 70
     0
 10
0.0
 20
0.0
 30
0.0
  3
*MODEL_SPACE
  1

  0
ENDBLK
  5
21
330
1F
100
AcDbEntity
  8
0
100
AcDbBlockEnd
  0
BLOCK
  5
1C
330
1B
100
AcDbEntity
 67
     1
  8
0
100
AcDbBlockBegin
  2
*PAPER_SPACE
 70
     0
 10
0.0
 20
0.0
 30
0.0
  3
*PAPER_SPACE
  1

  0
ENDBLK
  5
1D
330
1B
100
AcDbEntity
 67
     1
  8
0
100
AcDbBlockEnd
  0
ENDSEC
  0
SECTION
  2
ENTITIES
  0
LINE
  5
6C
330
1F
100
AcDbEntity
  8
0
100
AcDbLine
 10
-14.81207526855468
 20
13.45504379272462
 30
0.0
 11
-13.31695426635742
 21
12.9307098388672
 31
0.0
  0
LINE
  5
6D
330
1F
100
AcDbEntity
  8
0
100
AcDbLine
 10
-19.33298553161621
 20
14.91445646057131
 30
0.0
 11
-19.03221763305664
 21
14.74080571899417
 31
0.0
  0
LINE
  5
6E
330
1F
100
AcDbEntity
  8
0
100
AcDbLine
 10
-2.315151821899416
 20
-6.170262336730953
 30
0.0
 11
-3.036671292114259
 21
-7.821242332458492
 31
0.0
  0
LINE
  5
6F
330
1F
100
AcDbEntity
  8
0
100
AcDbLine
 10
-31.53903926544189
 20
-5.556530952453608
 30
0.0
 11
-32.08491576843262
 21
-4.06914138793945
 31
0.0
  0
LINE
  5
70
330
1F
100
AcDbEntity
  8
0
100
AcDbLine
 10
-1.767212521362302
 20
4.459644317626955
 30
0.0
 11
-1.398659359741196
 21
2.695983886718752
 31
0.0
  0
LINE
  5
71
330
1F
100
AcDbEntity
  8
0
100
AcDbLine
 10
-6.157532345581066
 20
12.21692085266113
 30
0.0
 11
-4.968100201415999
 21
10.86356353759766
 31
0.0
  0
LINE
  5
72
330
1F
100
AcDbEntity
  8
0
100
AcDbLine
 10
-9.316464077758786
 20
10.4016056060791
 30
0.0
 11
-8.201544415283195
 21
9.275878906250005
 31
0.0
  0
LINE
  5
73
330
1F
100
AcDbEntity
  8
0
100
AcDbLine
 10
-15.00469840698242
 20
-13.50328779220581
 30
0.0
 11
-16.35686362915039
 21
-13.80128693580627
 31
0.0
  0
LINE
  5
74
330
1F
100
AcDbEntity
  8
0
100
AcDbLine
 10
-30.82859862976074
 20
-6.972718238830561
 30
0.0
 11
-31.53903926544189
 21
-5.556530952453608
 31
0.0
  0
LINE
  5
75
330
1F
100
AcDbEntity
  8
0
100
AcDbLine
 10
-13.31695426635742
 20
12.9307098388672
 30
0.0
 11
-11.89065421752929
 21
12.24080085754396
 31
0.0
  0
LINE
  5
76
330
1F
100
AcDbEntity
  8
0
100
AcDbLine
 10
-32.17912830047607
 20
3.751066207885745
 30
0.0
 11
-31.66924203567504
 21
5.251174926757813
 31
0.0
  0
LINE
  5
77
330
1F
100
AcDbEntity
  8
0
100
AcDbLine
 10
-10.55143798522947
 20
11.39414978027345
 30
0.0
 11
-9.316464077758786
 21
10.4016056060791
 31
0.0
  0
LINE
  5
78
330
1F
100
AcDbEntity
  8
0
100
AcDbLine
 10
-15.55278457336425
 20
17.21936416625978
 30
0.0
 11
-13.79919875793457
 21
16.80552291870118
 31
0.0
  0
LINE
  5
79
330
1F
100
AcDbEntity
  8
0
100
AcDbLine
 10
-32.51625121765137
 20
2.202951431274416
 30
0.0
 11
-32.17912830047607
 21
3.751066207885745
 31
0.0
  0
LINE
  5
7A
330
1F
100
AcDbEntity
  8
0
100
AcDbLine
 10
-12.4213873260498
 20
-12.5151686668396
 30
0.0
 11
-13.68858016662597
 21
-13.07317972183227
 31
0.0
  0
LINE
  5
7B
330
1F
100
AcDbEntity
  8
0
100
AcDbLine
 10
-21.02353156738281
 20
-13.80128693580627
 30
0.0
 11
-22.37569678955078
 21
-13.50328779220581
 31
0.0
  0
LINE
  5
7C
330
1F
100
AcDbEntity
  8
0
100
AcDbLine
 10
-5.711153637695308
 20
5.251174926757813
 30
0.0
 11
-5.201265942382798
 21
3.751066207885745
 31
0.0
  0
LINE
  5
7D
330
1F
100
AcDbEntity
  8
0
100
AcDbLine
 10
-25.4897409790039
 20
12.24080085754396
 30
0.0
 11
-24.06344093017578
 21
12.9307098388672
 31
0.0
  0
LINE
  5
7E
330
1F
100
AcDbEntity
  8
0
100
AcDbLine
 10
-17.33962691955566
 20
17.45070266723633
 30
0.0
 11
-15.55278457336425
 21
17.21936416625978
 31
0.0
  0
LINE
  5
7F
330
1F
100
AcDbEntity
  8
0
100
AcDbLine
 10
-7.479817044067389
 20
13.44080734252931
 30
0.0
 11
-6.157532345581066
 21
12.21692085266113
 31
0.0
  0
LINE
  5
80
330
1F
100
AcDbEntity
  8
0
100
AcDbLine
 10
-24.06344093017578
 20
12.9307098388672
 30
0.0
 11
-22.56832088165283
 21
13.45504379272462
 31
0.0
  0
LINE
  5
81
330
1F
100
AcDbEntity
  8
0
100
AcDbLine
 10
-19.62989104919433
 20
15.3384810424805
 30
0.0
 11
-19.55622352294921
 21
15.18050298461919
 31
0.0
  0
LINE
  5
82
330
1F
100
AcDbEntity
  8
0
100
AcDbLine
 10
-1.2134024017334
 20
-0.8979778289794887
 30
0.0
 11
-1.398659359741196
 21
-2.690185546874996
 31
0.0
  0
LINE
  5
83
330
1F
100
AcDbEntity
  8
0
100
AcDbLine
 10
-23.69181407623291
 20
-13.07317972183227
 30
0.0
 11
-24.95900787048339
 21
-12.5151686668396
 31
0.0
  0
LINE
  5
84
330
1F
100
AcDbEntity
  8
0
100
AcDbLine
 10
-1.398659359741196
 20
2.695983886718752
 30
0.0
 11
-1.2134024017334
 21
0.9037761688232449
 31
0.0
  0
LINE
  5
85
330
1F
100
AcDbEntity
  8
0
100
AcDbLine
 10
-6.551794659423821
 20
-6.972718238830561
 30
0.0
 11
-7.4177023284912
 21
-8.299562454223627
 31
0.0
  0
LINE
  5
86
330
1F
100
AcDbEntity
  8
0
100
AcDbLine
 10
-13.68858016662597
 20
-13.07317972183227
 30
0.0
 11
-15.00469840698242
 21
-13.50328779220581
 31
0.0
  0
LINE
  5
87
330
1F
100
AcDbEntity
  8
0
100
AcDbLine
 10
-1.767212521362302
 20
-4.453845024108883
 30
0.0
 11
-2.315151821899416
 21
-6.170262336730953
 31
0.0
  0
LINE
  5
88
330
1F
100
AcDbEntity
  8
0
100
AcDbLine
 10
-32.65720857315063
 20
-0.957620620727537
 30
0.0
 11
-32.67629517250061
 21
0.626659393310551
 31
0.0
  0
LINE
  5
89
330
1F
100
AcDbEntity
  8
0
100
AcDbLine
 10
-29.96269239120483
 20
-8.299562454223627
 30
0.0
 11
-30.82859862976074
 21
-6.972718238830561
 31
0.0
  0
LINE
  5
8A
330
1F
100
AcDbEntity
  8
0
100
AcDbLine
 10
-28.06393111877441
 20
10.4016056060791
 30
0.0
 11
-26.82895530395507
 21
11.39414978027345
 31
0.0
  0
LINE
  5
8B
330
1F
100
AcDbEntity
  8
0
100
AcDbLine
 10
-32.08491576843262
 20
-4.06914138793945
 30
0.0
 11
-32.45923746757507
 21
-2.529599189758297
 31
0.0
  0
LINE
  5
8C
330
1F
100
AcDbEntity
  8
0
100
AcDbLine
 10
-11.21551002197265
 20
-11.83471250534057
 30
0.0
 11
-12.4213873260498
 21
-12.5151686668396
 31
0.0
  0
LINE
  5
8D
330
1F
100
AcDbEntity
  8
0
100
AcDbLine
 10
-5.841356884765609
 20
-5.556530952453608
 30
0.0
 11
-6.551794659423821
 21
-6.972718238830561
 31
0.0
  0
LINE
  5
8E
330
1F
100
AcDbEntity
  8
0
100
AcDbLine
 10
-5.295479428100583
 20
-4.06914138793945
 30
0.0
 11
-5.841356884765609
 21
-5.556530952453608
 31
0.0
  0
LINE
  5
8F
330
1F
100
AcDbEntity
  8
0
100
AcDbLine
 10
-1.398659359741196
 20
-2.690185546874996
 30
0.0
 11
-1.767212521362302
 21
-4.453845024108883
 31
0.0
  0
LINE
  5
90
330
1F
100
AcDbEntity
  8
0
100
AcDbLine
 10
-4.968100201415999
 20
10.86356353759766
 30
0.0
 11
-3.924126278686513
 21
9.395082473754892
 31
0.0
  0
LINE
  5
91
330
1F
100
AcDbEntity
  8
0
100
AcDbLine
 10
-32.67629517250061
 20
0.626659393310551
 30
0.0
 11
-32.51625121765137
 21
2.202951431274416
 31
0.0
  0
LINE
  5
92
330
1F
100
AcDbEntity
  8
0
100
AcDbLine
 10
-4.704100262451174
 20
0.626659393310551
 30
0.0
 11
-4.723185192871102
 21
-0.957620620727537
 31
0.0
  0
LINE
  5
93
330
1F
100
AcDbEntity
  8
0
100
AcDbLine
 10
-30.15943492584228
 20
8.031385421752924
 30
0.0
 11
-29.17885125808715
 21
9.275878906250005
 31
0.0
  0
LINE
  5
94
330
1F
100
AcDbEntity
  8
0
100
AcDbLine
 10
-4.968100201415999
 20
-10.85776662826538
 30
0.0
 11
-6.157532345581066
 21
-12.2111234664917
 31
0.0
  0
LINE
  5
95
330
1F
100
AcDbEntity
  8
0
100
AcDbLine
 10
-32.45923746757507
 20
-2.529599189758297
 30
0.0
 11
-32.65720857315063
 21
-0.957620620727537
 31
0.0
  0
LINE
  5
96
330
1F
100
AcDbEntity
  8
0
100
AcDbLine
 10
-4.864142071533206
 20
2.202951431274416
 30
0.0
 11
-4.704100262451174
 21
0.626659393310551
 31
0.0
  0
LINE
  5
97
330
1F
100
AcDbEntity
  8
0
100
AcDbLine
 10
-22.37569678955078
 20
-13.50328779220581
 30
0.0
 11
-23.69181407623291
 21
-13.07317972183227
 31
0.0
  0
LINE
  5
98
330
1F
100
AcDbEntity
  8
0
100
AcDbLine
 10
-19.14078582458496
 20
17.49710083007812
 30
0.0
 11
-17.33962691955566
 21
17.45070266723633
 31
0.0
  0
LINE
  5
99
330
1F
100
AcDbEntity
  8
0
100
AcDbLine
 10
-3.924126278686513
 20
-9.38928413391113
 30
0.0
 11
-4.968100201415999
 21
-10.85776662826538
 31
0.0
  0
LINE
  5
9A
330
1F
100
AcDbEntity
  8
0
100
AcDbLine
 10
-22.56832088165283
 20
13.45504379272462
 30
0.0
 11
-21.02353156738281
 21
13.80708694458009
 31
0.0
  0
LINE
  5
9B
330
1F
100
AcDbEntity
  8
0
100
AcDbLine
 10
-26.82895530395507
 20
11.39414978027345
 30
0.0
 11
-25.4897409790039
 21
12.24080085754396
 31
0.0
  0
LINE
  5
9C
330
1F
100
AcDbEntity
  8
0
100
AcDbLine
 10
-10.46560348205567
 20
15.4497756958008
 30
0.0
 11
-8.920931469726549
 21
14.52224731445314
 31
0.0
  0
LINE
  5
9D
330
1F
100
AcDbEntity
  8
0
100
AcDbLine
 10
-6.387270581054677
 20
6.684064865112306
 30
0.0
 11
-5.711153637695308
 21
5.251174926757813
 31
0.0
  0
LINE
  5
9E
330
1F
100
AcDbEntity
  8
0
100
AcDbLine
 10
-17.82417167358398
 20
15.18050298461919
 30
0.0
 11
-17.70538963012695
 21
15.50685033569339
 31
0.0
  0
LINE
  5
9F
330
1F
100
AcDbEntity
  8
0
100
AcDbLine
 10
-4.723185192871102
 20
-0.957620620727537
 30
0.0
 11
-4.921158444213873
 21
-2.529599189758297
 31
0.0
  0
LINE
  5
A0
330
1F
100
AcDbEntity
  8
0
100
AcDbLine
 10
-11.89065421752929
 20
12.24080085754396
 30
0.0
 11
-10.55143798522947
 21
11.39414978027345
 31
0.0
  0
LINE
  5
A1
330
1F
100
AcDbEntity
  8
0
100
AcDbLine
 10
-29.17885125808715
 20
9.275878906250005
 30
0.0
 11
-28.06393111877441
 21
10.4016056060791
 31
0.0
  0
LINE
  5
A2
330
1F
100
AcDbEntity
  8
0
100
AcDbLine
 10
-1.2134024017334
 20
0.9037761688232449
 30
0.0
 11
-1.2134024017334
 21
-0.8979778289794887
 31
0.0
  0
LINE
  5
A3
330
1F
100
AcDbEntity
  8
0
100
AcDbLine
 10
-16.35686362915039
 20
13.80708694458009
 30
0.0
 11
-14.81207526855468
 21
13.45504379272462
 31
0.0
  0
LINE
  5
A4
330
1F
100
AcDbEntity
  8
0
100
AcDbLine
 10
-19.55622352294921
 20
15.18050298461919
 30
0.0
 11
-19.33298553161621
 21
14.91445646057131
 31
0.0
  0
LINE
  5
A5
330
1F
100
AcDbEntity
  8
0
100
AcDbLine
 10
-8.920931469726549
 20
14.52224731445314
 30
0.0
 11
-7.479817044067389
 21
13.44080734252931
 31
0.0
  0
LINE
  5
A6
330
1F
100
AcDbEntity
  8
0
100
AcDbLine
 10
-4.921158444213873
 20
-2.529599189758297
 30
0.0
 11
-5.295479428100583
 21
-4.06914138793945
 31
0.0
  0
LINE
  5
A7
330
1F
100
AcDbEntity
  8
0
100
AcDbLine
 10
-7.220959317016595
 20
8.031385421752924
 30
0.0
 11
-6.387270581054677
 21
6.684064865112306
 31
0.0
  0
LINE
  5
A8
330
1F
100
AcDbEntity
  8
0
100
AcDbLine
 10
-12.09746040039062
 20
16.21356964111328
 30
0.0
 11
-10.46560348205567
 21
15.4497756958008
 31
0.0
  0
LINE
  5
A9
330
1F
100
AcDbEntity
  8
0
100
AcDbLine
 10
-8.201544415283195
 20
9.275878906250005
 30
0.0
 11
-7.220959317016595
 21
8.031385421752924
 31
0.0
  0
LINE
  5
AA
330
1F
100
AcDbEntity
  8
0
100
AcDbLine
 10
-30.99312509231567
 20
6.684064865112306
 30
0.0
 11
-30.15943492584228
 21
8.031385421752924
 31
0.0
  0
LINE
  5
AB
330
1F
100
AcDbEntity
  8
0
100
AcDbLine
 10
-31.66924203567504
 20
5.251174926757813
 30
0.0
 11
-30.99312509231567
 21
6.684064865112306
 31
0.0
  0
LINE
  5
AC
330
1F
100
AcDbEntity
  8
0
100
AcDbLine
 10
-13.79919875793457
 20
16.80552291870118
 30
0.0
 11
-12.09746040039062
 21
16.21356964111328
 31
0.0
  0
LINE
  5
AD
330
1F
100
AcDbEntity
  8
0
100
AcDbLine
 10
-18.04740966491699
 20
14.91445646057131
 30
0.0
 11
-17.82417167358398
 21
15.18050298461919
 31
0.0
  0
LINE
  5
AE
330
1F
100
AcDbEntity
  8
0
100
AcDbLine
 10
-20.93716872863769
 20
17.35804367065429
 30
0.0
 11
-19.14078582458496
 21
17.49710083007812
 31
0.0
  0
LINE
  5
AF
330
1F
100
AcDbEntity
  8
0
100
AcDbLine
 10
-16.69203628234863
 20
13.74602508544922
 30
0.0
 11
-16.82412971191406
 21
13.63438606262207
 31
0.0
  0
LINE
  5
B0
330
1F
100
AcDbEntity
  8
0
100
AcDbLine
 10
-18.51654876403808
 20
16.66530523071292
 30
0.0
 11
-18.86384643249511
 21
16.66530523071292
 31
0.0
  0
LINE
  5
B1
330
1F
100
AcDbEntity
  8
0
100
AcDbLine
 10
-18.6901975982666
 20
14.68050107727055
 30
0.0
 11
-18.34817756347656
 21
14.74080571899417
 31
0.0
  0
LINE
  5
B2
330
1F
100
AcDbEntity
  8
0
100
AcDbLine
 10
-18.86384643249511
 20
16.66530523071292
 30
0.0
 11
-19.03221763305664
 21
16.62019262084965
 31
0.0
  0
LINE
  5
B3
330
1F
100
AcDbEntity
  8
0
100
AcDbLine
 10
-34.72574318580627
 20
-7.005043983459466
 30
0.0
 11
-35.36131681137085
 21
-5.319109916687007
 31
0.0
  0
LINE
  5
B4
330
1F
100
AcDbEntity
  8
0
100
AcDbLine
 10
-36.1901975982666
 20
0.002899169921878
 30
0.0
 11
-36.09744532041549
 21
1.802267074584964
 31
0.0
  0
LINE
  5
B5
330
1F
100
AcDbEntity
  8
0
100
AcDbLine
 10
-17.75050414733887
 20
16.0225211120606
 30
0.0
 11
-17.92415298156738
 21
16.32328710327153
 31
0.0
  0
LINE
  5
B6
330
1F
100
AcDbEntity
  8
0
100
AcDbLine
 10
-24.43968928985595
 20
-16.52566248178481
 30
0.0
 11
-26.10869945220947
 21
-15.84689033031463
 31
0.0
  0
LINE
  5
B7
330
1F
100
AcDbEntity
  8
0
100
AcDbLine
 10
-20.4401975982666
 20
0.6168613433837922
 30
0.0
 11
-20.44773162536621
 21
13.40055465698244
 31
0.0
  0
LINE
  5
B8
330
1F
100
AcDbEntity
  8
0
100
AcDbLine
 10
-30.57748044662475
 20
-12.84009504318237
 30
0.0
 11
-31.83500636749267
 21
-11.54976224899292
 31
0.0
  0
LINE
  5
B9
330
1F
100
AcDbEntity
  8
0
100
AcDbLine
 10
-36.09744532041549
 20
-1.796467781066892
 30
0.0
 11
-36.1901975982666
 21
0.002899169921878
 31
0.0
  0
LINE
  5
BA
330
1F
100
AcDbEntity
  8
0
100
AcDbLine
 10
-13.79919875793457
 20
-16.79972279071808
 30
0.0
 11
-15.55278457336425
 21
-17.21356526017189
 31
0.0
  0
LINE
  5
BB
330
1F
100
AcDbEntity
  8
0
100
AcDbLine
 10
-18.1901975982666
 20
16.5465231872559
 30
0.0
 11
-18.51654876403808
 21
16.66530523071292
 31
0.0
  0
LINE
  5
BC
330
1F
100
AcDbEntity
  8
0
100
AcDbLine
 10
-33.92018927268981
 20
-8.616692543029782
 30
0.0
 11
-34.72574318580627
 21
-7.005043983459466
 31
0.0
  0
LINE
  5
BD
330
1F
100
AcDbEntity
  8
0
100
AcDbLine
 10
-19.03221763305664
 20
14.74080571899417
 30
0.0
 11
-18.6901975982666
 21
14.68050107727055
 31
0.0
  0
LINE
  5
BE
330
1F
100
AcDbEntity
  8
0
100
AcDbLine
 10
-22.70973361663818
 20
17.03502655029298
 30
0.0
 11
-20.93716872863769
 21
17.35804367065429
 31
0.0
  0
LINE
  5
BF
330
1F
100
AcDbEntity
  8
0
100
AcDbLine
 10
-16.9401975982666
 20
13.31407928466797
 30
0.0
 11
-16.9401975982666
 21
0.6168613433837922
 31
0.0
  0
LINE
  5
C0
330
1F
100
AcDbEntity
  8
0
100
AcDbLine
 10
-27.69907153778076
 20
-15.00010681152343
 30
0.0
 11
-29.19394792251586
 21
-13.9942877292633
 31
0.0
  0
LINE
  5
C1
330
1F
100
AcDbEntity
  8
0
100
AcDbLine
 10
-32.95319331817627
 20
-10.13697052001953
 30
0.0
 11
-33.92018927268981
 21
-8.616692543029782
 31
0.0
  0
LINE
  5
C2
330
1F
100
AcDbEntity
  8
0
100
AcDbLine
 10
-22.70973361663818
 20
-17.0292267203331
 30
0.0
 11
-24.43968928985595
 21
-16.52566248178481
 31
0.0
  0
LINE
  5
C3
330
1F
100
AcDbEntity
  8
0
100
AcDbLine
 10
-31.83500636749267
 20
11.55556106567383
 30
0.0
 11
-30.57748044662475
 21
12.84589385986327
 31
0.0
  0
LINE
  5
C4
330
1F
100
AcDbEntity
  8
0
100
AcDbLine
 10
-34.72574318580627
 20
7.010843276977542
 30
0.0
 11
-33.92018927268981
 21
8.622489929199233
 31
0.0
  0
LINE
  5
C5
330
1F
100
AcDbEntity
  8
0
100
AcDbLine
 10
-35.82017196350098
 20
3.582559585571292
 30
0.0
 11
-35.36131681137085
 21
5.32490921020508
 31
0.0
  0
LINE
  5
C6
330
1F
100
AcDbEntity
  8
0
100
AcDbLine
 10
-7.479817044067389
 20
-13.43500900268554
 30
0.0
 11
-8.920931469726549
 21
-14.51644849777221
 31
0.0
  0
LINE
  5
C7
330
1F
100
AcDbEntity
  8
0
100
AcDbLine
 10
-33.92018927268981
 20
8.622489929199233
 30
0.0
 11
-32.95319331817627
 21
10.14276885986328
 31
0.0
  0
LINE
  5
C8
330
1F
100
AcDbEntity
  8
0
100
AcDbLine
 10
-31.83500636749267
 20
-11.54976224899292
 30
0.0
 11
-32.95319331817627
 21
-10.13697052001953
 31
0.0
  0
LINE
  5
C9
330
1F
100
AcDbEntity
  8
0
100
AcDbLine
 10
-27.69907153778076
 20
15.00590515136721
 30
0.0
 11
-26.10869945220947
 21
15.85268783569337
 31
0.0
  0
LINE
  5
CA
330
1F
100
AcDbEntity
  8
0
100
AcDbLine
 10
-6.157532345581066
 20
-12.2111234664917
 30
0.0
 11
-7.479817044067389
 21
-13.43500900268554
 31
0.0
  0
LINE
  5
CB
330
1F
100
AcDbEntity
  8
0
100
AcDbLine
 10
-35.36131681137085
 20
-5.319109916687007
 30
0.0
 11
-35.82017196350098
 21
-3.576762199401852
 31
0.0
  0
LINE
  5
CC
330
1F
100
AcDbEntity
  8
0
100
AcDbLine
 10
-20.47010959320068
 20
-13.47862482070922
 30
0.0
 11
-20.4401975982666
 21
-13.3082799911499
 31
0.0
  0
LINE
  5
CD
330
1F
100
AcDbEntity
  8
0
100
AcDbLine
 10
-10.46560348205567
 20
-15.44397974014282
 30
0.0
 11
-12.09746040039062
 21
-16.20777034759521
 31
0.0
  0
LINE
  5
CE
330
1F
100
AcDbEntity
  8
0
100
AcDbLine
 10
-35.36131681137085
 20
5.32490921020508
 30
0.0
 11
-34.72574318580627
 21
7.010843276977542
 31
0.0
  0
LINE
  5
CF
330
1F
100
AcDbEntity
  8
0
100
AcDbLine
 10
-16.79375137023926
 20
0.2633056640625014
 30
0.0
 11
-8.1080614440918
 21
-8.411933898925776
 31
0.0
  0
LINE
  5
D0
330
1F
100
AcDbEntity
  8
0
100
AcDbLine
 10
-3.924126278686513
 20
9.395082473754892
 30
0.0
 11
-3.036671292114259
 21
7.827041625976565
 31
0.0
  0
LINE
  5
D1
330
1F
100
AcDbEntity
  8
0
100
AcDbLine
 10
-35.82017196350098
 20
-3.576762199401852
 30
0.0
 11
-36.09744532041549
 21
-1.796467781066892
 31
0.0
  0
LINE
  5
D2
330
1F
100
AcDbEntity
  8
0
100
AcDbLine
 10
-12.09746040039062
 20
-16.20777034759521
 30
0.0
 11
-13.79919875793457
 21
-16.79972279071808
 31
0.0
  0
LINE
  5
D3
330
1F
100
AcDbEntity
  8
0
100
AcDbLine
 10
-17.33962691955566
 20
-17.44490765035152
 30
0.0
 11
-19.14078582458496
 21
-17.49129869043826
 31
0.0
  0
LINE
  5
D4
330
1F
100
AcDbEntity
  8
0
100
AcDbLine
 10
-15.55278457336425
 20
-17.21356526017189
 30
0.0
 11
-17.33962691955566
 21
-17.44490765035152
 31
0.0
  0
LINE
  5
D5
330
1F
100
AcDbEntity
  8
0
100
AcDbLine
 10
-26.10869945220947
 20
-15.84689033031463
 30
0.0
 11
-27.69907153778076
 21
-15.00010681152343
 31
0.0
  0
LINE
  5
D6
330
1F
100
AcDbEntity
  8
0
100
AcDbLine
 10
-8.920931469726549
 20
-14.51644849777221
 30
0.0
 11
-10.46560348205567
 21
-15.44397974014282
 31
0.0
  0
LINE
  5
D7
330
1F
100
AcDbEntity
  8
0
100
AcDbLine
 10
-19.33298553161621
 20
16.44653997192388
 30
0.0
 11
-19.55622352294921
 21
16.18049916992191
 31
0.0
  0
LINE
  5
D8
330
1F
100
AcDbEntity
  8
0
100
AcDbLine
 10
-19.14078582458496
 20
-17.49129869043826
 30
0.0
 11
-20.93716872863769
 21
-17.35224664211272
 31
0.0
  0
LINE
  5
D9
330
1F
100
AcDbEntity
  8
0
100
AcDbLine
 10
-19.6901975982666
 20
15.6804991699219
 30
0.0
 11
-19.62989104919433
 21
15.3384810424805
 31
0.0
  0
LINE
  5
DA
330
1F
100
AcDbEntity
  8
0
100
AcDbLine
 10
-16.82412971191406
 20
13.63438606262207
 30
0.0
 11
-16.9401975982666
 21
13.31407928466797
 31
0.0
  0
LINE
  5
DB
330
1F
100
AcDbEntity
  8
0
100
AcDbLine
 10
-36.09744532041549
 20
1.802267074584964
 30
0.0
 11
-35.82017196350098
 21
3.582559585571292
 31
0.0
  0
LINE
  5
DC
330
1F
100
AcDbEntity
  8
0
100
AcDbLine
 10
-29.20654977493286
 20
-8.356598854064936
 30
0.0
 11
-20.53568996124267
 21
0.3229675292968772
 31
0.0
  0
LINE
  5
DD
330
1F
100
AcDbEntity
  8
0
100
AcDbLine
 10
-24.43968928985595
 20
16.53145980834961
 30
0.0
 11
-22.70973361663818
 21
17.03502655029298
 31
0.0
  0
LINE
  5
DE
330
1F
100
AcDbEntity
  8
0
100
AcDbLine
 10
-17.92415298156738
 20
16.32328710327153
 30
0.0
 11
-18.1901975982666
 21
16.5465231872559
 31
0.0
  0
LINE
  5
DF
330
1F
100
AcDbEntity
  8
0
100
AcDbLine
 10
-30.57748044662475
 20
12.84589385986327
 30
0.0
 11
-29.19394792251586
 21
14.00008773803712
 31
0.0
  0
LINE
  5
E0
330
1F
100
AcDbEntity
  8
0
100
AcDbLine
 10
-3.036671292114259
 20
-7.821242332458492
 30
0.0
 11
-3.924126278686513
 21
-9.38928413391113
 31
0.0
  0
LINE
  5
E1
330
1F
100
AcDbEntity
  8
0
100
AcDbLine
 10
-5.201265942382798
 20
3.751066207885745
 30
0.0
 11
-4.864142071533206
 21
2.202951431274416
 31
0.0
  0
LINE
  5
E2
330
1F
100
AcDbEntity
  8
0
100
AcDbLine
 10
-32.95319331817627
 20
10.14276885986328
 30
0.0
 11
-31.83500636749267
 21
11.55556106567383
 31
0.0
  0
LINE
  5
E3
330
1F
100
AcDbEntity
  8
0
100
AcDbLine
 10
-3.036671292114259
 20
7.827041625976565
 30
0.0
 11
-2.315151821899416
 21
6.176061630249025
 31
0.0
  0
LINE
  5
E4
330
1F
100
AcDbEntity
  8
0
100
AcDbLine
 10
-16.9401975982666
 20
-6.454208374023431
 30
0.0
 11
-16.9401975982666
 21
-13.3082799911499
 31
0.0
  0
LINE
  5
E5
330
1F
100
AcDbEntity
  8
0
100
AcDbLine
 10
-26.10869945220947
 20
15.85268783569337
 30
0.0
 11
-24.43968928985595
 21
16.53145980834961
 31
0.0
  0
LINE
  5
E6
330
1F
100
AcDbEntity
  8
0
100
AcDbLine
 10
-29.19394792251586
 20
14.00008773803712
 30
0.0
 11
-27.69907153778076
 21
15.00590515136721
 31
0.0
  0
LINE
  5
E7
330
1F
100
AcDbEntity
  8
0
100
AcDbLine
 10
-20.93716872863769
 20
-17.35224664211272
 30
0.0
 11
-22.70973361663818
 21
-17.0292267203331
 31
0.0
  0
LINE
  5
E8
330
1F
100
AcDbEntity
  8
0
100
AcDbLine
 10
-2.315151821899416
 20
6.176061630249025
 30
0.0
 11
-1.767212521362302
 21
4.459644317626955
 31
0.0
  0
LINE
  5
E9
330
1F
100
AcDbEntity
  8
0
100
AcDbLine
 10
-20.4401975982666
 20
-13.3082799911499
 30
0.0
 11
-20.4401975982666
 21
-6.454208374023431
 31
0.0
  0
LINE
  5
EA
330
1F
100
AcDbEntity
  8
0
100
AcDbLine
 10
-29.19394792251586
 20
-13.9942877292633
 30
0.0
 11
-30.57748044662475
 21
-12.84009504318237
 31
0.0
  0
LINE
  5
EB
330
1F
100
AcDbEntity
  8
0
100
AcDbLine
 10
-20.4401975982666
 20
0.6168613433837922
 30
0.0
 11
-20.53568996124267
 21
0.3229675292968772
 31
0.0
  0
LINE
  5
EC
330
1F
100
AcDbEntity
  8
0
100
AcDbLine
 10
-19.55622352294921
 20
16.18049916992191
 30
0.0
 11
-19.67500556640625
 21
15.85414418945316
 31
0.0
  0
LINE
  5
ED
330
1F
100
AcDbEntity
  8
0
100
AcDbLine
 10
-11.01374305419922
 20
-11.58601236343383
 30
0.0
 11
-10.98690665893554
 21
-11.34543561935424
 31
0.0
  0
LINE
  5
EE
330
1F
100
AcDbEntity
  8
0
100
AcDbLine
 10
-11.03430427246093
 20
-11.19023466110229
 30
0.0
 11
-16.08664382629394
 21
-6.100653648376462
 31
0.0
  0
LINE
  5
EF
330
1F
100
AcDbEntity
  8
0
100
AcDbLine
 10
-20.44773162536621
 20
13.40055465698244
 30
0.0
 11
-20.55626643829346
 21
13.63438606262207
 31
0.0
  0
LINE
  5
F0
330
1F
100
AcDbEntity
  8
0
100
AcDbLine
 10
-26.3253237121582
 20
-11.15566301345825
 30
0.0
 11
-26.38868678741455
 21
-11.50764226913452
 31
0.0
  0
LINE
  5
F1
330
1F
100
AcDbEntity
  8
0
100
AcDbLine
 10
-16.35686362915039
 20
13.80708694458009
 30
0.0
 11
-16.69203628234863
 21
13.74602508544922
 31
0.0
  0
LINE
  5
F2
330
1F
100
AcDbEntity
  8
0
100
AcDbLine
 10
-16.52981055908203
 20
-13.80018424987793
 30
0.0
 11
-16.35686362915039
 21
-13.80128693580627
 31
0.0
  0
LINE
  5
F3
330
1F
100
AcDbEntity
  8
0
100
AcDbLine
 10
-16.9401975982666
 20
0.6168613433837922
 30
0.0
 11
-16.79375137023926
 21
0.2633056640625014
 31
0.0
  0
LINE
  5
F4
330
1F
100
AcDbEntity
  8
0
100
AcDbLine
 10
-16.38421500854492
 20
-5.957350730895992
 30
0.0
 11
-16.70621360473633
 21
-6.03084564208984
 31
0.0
  0
LINE
  5
F5
330
1F
100
AcDbEntity
  8
0
100
AcDbLine
 10
-16.9121385925293
 20
-6.289067268371577
 30
0.0
 11
-16.9401975982666
 21
-6.454208374023431
 31
0.0
  0
LINE
  5
F6
330
1F
100
AcDbEntity
  8
0
100
AcDbLine
 10
-29.96269239120483
 20
-8.299562454223627
 30
0.0
 11
-29.76378406219482
 21
-8.459678649902338
 31
0.0
  0
LINE
  5
F7
330
1F
100
AcDbEntity
  8
0
100
AcDbLine
 10
-20.82893718414306
 20
-5.966743469238278
 30
0.0
 11
-21.15713943176269
 21
-6.003723144531245
 31
0.0
  0
LINE
  5
F8
330
1F
100
AcDbEntity
  8
0
100
AcDbLine
 10
-19.03221763305664
 20
16.62019262084965
 30
0.0
 11
-19.33298553161621
 21
16.44653997192388
 31
0.0
  0
LINE
  5
F9
330
1F
100
AcDbEntity
  8
0
100
AcDbLine
 10
-11.21551002197265
 20
-11.83471250534057
 30
0.0
 11
-11.01374305419922
 21
-11.58601236343383
 31
0.0
  0
LINE
  5
FA
330
1F
100
AcDbEntity
  8
0
100
AcDbLine
 10
-17.70538963012695
 20
15.50685033569339
 30
0.0
 11
-17.70538963012695
 21
15.85414418945316
 31
0.0
  0
LINE
  5
FB
330
1F
100
AcDbEntity
  8
0
100
AcDbLine
 10
-8.1080614440918
 20
-8.411933898925776
 30
0.0
 11
-7.868641506958006
 21
-8.500702857971188
 31
0.0
  0
LINE
  5
FC
330
1F
100
AcDbEntity
  8
0
100
AcDbLine
 10
-19.67500556640625
 20
15.85414418945316
 30
0.0
 11
-19.6901975982666
 21
15.6804991699219
 31
0.0
  0
LINE
  5
FD
330
1F
100
AcDbEntity
  8
0
100
AcDbLine
 10
-21.29375041656494
 20
-6.100653648376462
 30
0.0
 11
-26.3253237121582
 21
-11.15566301345825
 31
0.0
  0
LINE
  5
FE
330
1F
100
AcDbEntity
  8
0
100
AcDbLine
 10
-20.68835986785889
 20
-13.74022650718688
 30
0.0
 11
-20.47010959320068
 21
-13.47862482070922
 31
0.0
  0
LINE
  5
FF
330
1F
100
AcDbEntity
  8
0
100
AcDbLine
 10
-21.02353156738281
 20
-13.80128693580627
 30
0.0
 11
-20.68835986785889
 21
-13.74022650718688
 31
0.0
  0
LINE
  5
100
330
1F
100
AcDbEntity
  8
0
100
AcDbLine
 10
-29.34662498168945
 20
-8.455181121826165
 30
0.0
 11
-29.20654977493286
 21
-8.356598854064936
 31
0.0
  0
LINE
  5
101
330
1F
100
AcDbEntity
  8
0
100
AcDbLine
 10
-20.76685966186523
 20
13.7830696105957
 30
0.0
 11
-21.02353156738281
 21
13.80708694458009
 31
0.0
  0
LINE
  5
102
330
1F
100
AcDbEntity
  8
0
100
AcDbLine
 10
-7.697836529541009
 20
-8.487818717956538
 30
0.0
 11
-7.4177023284912
 21
-8.299562454223627
 31
0.0
  0
LINE
  5
103
330
1F
100
AcDbEntity
  8
0
100
AcDbLine
 10
-16.08664382629394
 20
-6.100653648376462
 30
0.0
 11
-16.38421500854492
 21
-5.957350730895992
 31
0.0
  0
LINE
  5
104
330
1F
100
AcDbEntity
  8
0
100
AcDbLine
 10
-21.15713943176269
 20
-6.003723144531245
 30
0.0
 11
-21.29375041656494
 21
-6.100653648376462
 31
0.0
  0
LINE
  5
105
330
1F
100
AcDbEntity
  8
0
100
AcDbLine
 10
-20.5492817276001
 20
-6.14246273040771
 30
0.0
 11
-20.82893718414306
 21
-5.966743469238278
 31
0.0
  0
LINE
  5
106
330
1F
100
AcDbEntity
  8
0
100
AcDbLine
 10
-10.98690665893554
 20
-11.34543561935424
 30
0.0
 11
-11.03430427246093
 21
-11.19023466110229
 31
0.0
  0
LINE
  5
107
330
1F
100
AcDbEntity
  8
0
100
AcDbLine
 10
-16.9401975982666
 20
-13.3082799911499
 30
0.0
 11
-16.82412971191406
 21
-13.62858700752258
 31
0.0
  0
LINE
  5
108
330
1F
100
AcDbEntity
  8
0
100
AcDbLine
 10
-29.59771264724731
 20
-8.501628875732418
 30
0.0
 11
-29.34662498168945
 21
-8.455181121826165
 31
0.0
  0
LINE
  5
109
330
1F
100
AcDbEntity
  8
0
100
AcDbLine
 10
-18.34817756347656
 20
14.74080571899417
 30
0.0
 11
-18.04740966491699
 21
14.91445646057131
 31
0.0
  0
LINE
  5
10A
330
1F
100
AcDbEntity
  8
0
100
AcDbLine
 10
-7.868641506958006
 20
-8.500702857971188
 30
0.0
 11
-7.697836529541009
 21
-8.487818717956538
 31
0.0
  0
LINE
  5
10B
330
1F
100
AcDbEntity
  8
0
100
AcDbLine
 10
-26.28621829681396
 20
-11.72695398330688
 30
0.0
 11
-24.95900787048339
 21
-12.5151686668396
 31
0.0
  0
LINE
  5
10C
330
1F
100
AcDbEntity
  8
0
100
AcDbLine
 10
-16.70621360473633
 20
-6.03084564208984
 30
0.0
 11
-16.9121385925293
 21
-6.289067268371577
 31
0.0
  0
LINE
  5
10D
330
1F
100
AcDbEntity
  8
0
100
AcDbLine
 10
-26.38868678741455
 20
-11.50764226913452
 30
0.0
 11
-26.28621829681396
 21
-11.72695398330688
 31
0.0
  0
LINE
  5
10E
330
1F
100
AcDbEntity
  8
0
100
AcDbLine
 10
-16.82412971191406
 20
-13.62858700752258
 30
0.0
 11
-16.52981055908203
 21
-13.80018424987793
 31
0.0
  0
LINE
  5
10F
330
1F
100
AcDbEntity
  8
0
100
AcDbLine
 10
-29.76378406219482
 20
-8.459678649902338
 30
0.0
 11
-29.59771264724731
 21
-8.501628875732418
 31
0.0
  0
LINE
  5
110
330
1F
100
AcDbEntity
  8
0
100
AcDbLine
 10
-17.70538963012695
 20
15.85414418945316
 30
0.0
 11
-17.75050414733887
 21
16.0225211120606
 31
0.0
  0
LINE
  5
111
330
1F
100
AcDbEntity
  8
0
100
AcDbLine
 10
-20.4401975982666
 20
-6.454208374023431
 30
0.0
 11
-20.5492817276001
 21
-6.14246273040771
 31
0.0
  0
LINE
  5
112
330
1F
100
AcDbEntity
  8
0
100
AcDbLine
 10
-20.55626643829346
 20
13.63438606262207
 30
0.0
 11
-20.76685966186523
 21
13.7830696105957
 31
0.0
  0
LINE
  5
113
330
1F
100
AcDbEntity
  8
0
100
AcDbLine
 10
22.59152473144531
 20
13.44924165308477
 30
0.0
 11
24.08664573364258
 21
12.92490769922734
 31
0.0
  0
LINE
  5
114
330
1F
100
AcDbEntity
  8
0
100
AcDbLine
 10
18.07061446838379
 20
14.90865432093146
 30
0.0
 11
18.37138236694336
 21
14.73500357935431
 31
0.0
  0
LINE
  5
115
330
1F
100
AcDbEntity
  8
0
100
AcDbLine
 10
35.08844817810058
 20
-6.176064476370812
 30
0.0
 11
34.36692870788574
 21
-7.827044472098351
 31
0.0
  0
LINE
  5
116
330
1F
100
AcDbEntity
  8
0
100
AcDbLine
 10
5.864560734558107
 20
-5.562333092093468
 30
0.0
 11
5.318684231567383
 21
-4.074943527579308
 31
0.0
  0
LINE
  5
117
330
1F
100
AcDbEntity
  8
0
100
AcDbLine
 10
35.63638747863769
 20
4.453842177987096
 30
0.0
 11
36.0049406402588
 21
2.690181747078893
 31
0.0
  0
LINE
  5
118
330
1F
100
AcDbEntity
  8
0
100
AcDbLine
 10
31.24606765441893
 20
12.21111871302127
 30
0.0
 11
32.435499798584
 21
10.8577613979578
 31
0.0
  0
LINE
  5
119
330
1F
100
AcDbEntity
  8
0
100
AcDbLine
 10
28.08713592224121
 20
10.39580346643924
 30
0.0
 11
29.2020555847168
 21
9.270076766610146
 31
0.0
  0
LINE
  5
11A
330
1F
100
AcDbEntity
  8
0
100
AcDbLine
 10
22.39890159301758
 20
-13.50908993184566
 30
0.0
 11
21.04673637084961
 21
-13.80708907544613
 31
0.0
  0
LINE
  5
11B
330
1F
100
AcDbEntity
  8
0
100
AcDbLine
 10
6.575001370239259
 20
-6.978520378470421
 30
0.0
 11
5.864560734558107
 21
-5.562333092093468
 31
0.0
  0
LINE
  5
11C
330
1F
100
AcDbEntity
  8
0
100
AcDbLine
 10
24.08664573364258
 20
12.92490769922734
 30
0.0
 11
25.5129457824707
 21
12.2349987179041
 31
0.0
  0
LINE
  5
11D
330
1F
100
AcDbEntity
  8
0
100
AcDbLine
 10
5.224471699523926
 20
3.745264068245886
 30
0.0
 11
5.734357964324952
 21
5.245372787117955
 31
0.0
  0
LINE
  5
11E
330
1F
100
AcDbEntity
  8
0
100
AcDbLine
 10
26.85216201477052
 20
11.38834764063359
 30
0.0
 11
28.08713592224121
 21
10.39580346643924
 31
0.0
  0
LINE
  5
11F
330
1F
100
AcDbEntity
  8
0
100
AcDbLine
 10
21.85081542663574
 20
17.21356202661992
 30
0.0
 11
23.60440124206543
 21
16.79972077906132
 31
0.0
  0
LINE
  5
120
330
1F
100
AcDbEntity
  8
0
100
AcDbLine
 10
4.887348782348635
 20
2.197149291634557
 30
0.0
 11
5.224471699523926
 21
3.745264068245886
 31
0.0
  0
LINE
  5
121
330
1F
100
AcDbEntity
  8
0
100
AcDbLine
 10
24.98221267395019
 20
-12.52097080647945
 30
0.0
 11
23.71501983337403
 21
-13.07898186147213
 31
0.0
  0
LINE
  5
122
330
1F
100
AcDbEntity
  8
0
100
AcDbLine
 10
16.38006843261719
 20
-13.80708907544613
 30
0.0
 11
15.02790321044922
 21
-13.50908993184566
 31
0.0
  0
LINE
  5
123
330
1F
100
AcDbEntity
  8
0
100
AcDbLine
 10
31.69244636230469
 20
5.245372787117955
 30
0.0
 11
32.2023340576172
 21
3.745264068245886
 31
0.0
  0
LINE
  5
124
330
1F
100
AcDbEntity
  8
0
100
AcDbLine
 10
11.91385902099609
 20
12.2349987179041
 30
0.0
 11
13.34015906982422
 21
12.92490769922734
 31
0.0
  0
LINE
  5
125
330
1F
100
AcDbEntity
  8
0
100
AcDbLine
 10
20.06397308044434
 20
17.44490052759647
 30
0.0
 11
21.85081542663574
 21
17.21356202661992
 31
0.0
  0
LINE
  5
126
330
1F
100
AcDbEntity
  8
0
100
AcDbLine
 10
29.92378295593261
 20
13.43500520288945
 30
0.0
 11
31.24606765441893
 21
12.21111871302127
 31
0.0
  0
LINE
  5
127
330
1F
100
AcDbEntity
  8
0
100
AcDbLine
 10
13.34015906982422
 20
12.92490769922734
 30
0.0
 11
14.83527911834717
 21
13.44924165308477
 31
0.0
  0
LINE
  5
128
330
1F
100
AcDbEntity
  8
0
100
AcDbLine
 10
17.77370895080567
 20
15.33267890284064
 30
0.0
 11
17.84737647705078
 21
15.17470084497933
 31
0.0
  0
LINE
  5
129
330
1F
100
AcDbEntity
  8
0
100
AcDbLine
 10
36.1901975982666
 20
-0.9037799686193478
 30
0.0
 11
36.0049406402588
 21
-2.695987686514855
 31
0.0
  0
LINE
  5
12A
330
1F
100
AcDbEntity
  8
0
100
AcDbLine
 10
13.71178592376709
 20
-13.07898186147213
 30
0.0
 11
12.4445921295166
 21
-12.52097080647945
 31
0.0
  0
LINE
  5
12B
330
1F
100
AcDbEntity
  8
0
100
AcDbLine
 10
36.0049406402588
 20
2.690181747078893
 30
0.0
 11
36.1901975982666
 21
0.8979740291833858
 31
0.0
  0
LINE
  5
12C
330
1F
100
AcDbEntity
  8
0
100
AcDbLine
 10
30.85180534057618
 20
-6.978520378470421
 30
0.0
 11
29.9858976715088
 21
-8.305364593863487
 31
0.0
  0
LINE
  5
12D
330
1F
100
AcDbEntity
  8
0
100
AcDbLine
 10
23.71501983337403
 20
-13.07898186147213
 30
0.0
 11
22.39890159301758
 21
-13.50908993184566
 31
0.0
  0
LINE
  5
12E
330
1F
100
AcDbEntity
  8
0
100
AcDbLine
 10
35.63638747863769
 20
-4.459647163748742
 30
0.0
 11
35.08844817810058
 21
-6.176064476370812
 31
0.0
  0
LINE
  5
12F
330
1F
100
AcDbEntity
  8
0
100
AcDbLine
 10
4.746391426849366
 20
-0.9634227603673959
 30
0.0
 11
4.72730482749939
 21
0.620857253670692
 31
0.0
  0
LINE
  5
130
330
1F
100
AcDbEntity
  8
0
100
AcDbLine
 10
7.440907608795166
 20
-8.305364593863487
 30
0.0
 11
6.575001370239259
 21
-6.978520378470421
 31
0.0
  0
LINE
  5
131
330
1F
100
AcDbEntity
  8
0
100
AcDbLine
 10
9.339668881225586
 20
10.39580346643924
 30
0.0
 11
10.57464469604492
 21
11.38834764063359
 31
0.0
  0
LINE
  5
132
330
1F
100
AcDbEntity
  8
0
100
AcDbLine
 10
5.318684231567383
 20
-4.074943527579308
 30
0.0
 11
4.944362532424928
 21
-2.535401329398156
 31
0.0
  0
LINE
  5
133
330
1F
100
AcDbEntity
  8
0
100
AcDbLine
 10
26.18808997802735
 20
-11.84051464498043
 30
0.0
 11
24.98221267395019
 21
-12.52097080647945
 31
0.0
  0
LINE
  5
134
330
1F
100
AcDbEntity
  8
0
100
AcDbLine
 10
31.56224311523439
 20
-5.562333092093468
 30
0.0
 11
30.85180534057618
 21
-6.978520378470421
 31
0.0
  0
LINE
  5
135
330
1F
100
AcDbEntity
  8
0
100
AcDbLine
 10
32.10812057189941
 20
-4.074943527579308
 30
0.0
 11
31.56224311523439
 21
-5.562333092093468
 31
0.0
  0
LINE
  5
136
330
1F
100
AcDbEntity
  8
0
100
AcDbLine
 10
36.0049406402588
 20
-2.695987686514855
 30
0.0
 11
35.63638747863769
 21
-4.459647163748742
 31
0.0
  0
LINE
  5
137
330
1F
100
AcDbEntity
  8
0
100
AcDbLine
 10
32.435499798584
 20
10.8577613979578
 30
0.0
 11
33.47947372131348
 21
9.389280334115032
 31
0.0
  0
LINE
  5
138
330
1F
100
AcDbEntity
  8
0
100
AcDbLine
 10
4.72730482749939
 20
0.620857253670692
 30
0.0
 11
4.887348782348635
 21
2.197149291634557
 31
0.0
  0
LINE
  5
139
330
1F
100
AcDbEntity
  8
0
100
AcDbLine
 10
32.69949973754882
 20
0.620857253670692
 30
0.0
 11
32.6804148071289
 21
-0.9634227603673959
 31
0.0
  0
LINE
  5
13A
330
1F
100
AcDbEntity
  8
0
100
AcDbLine
 10
7.244165074157716
 20
8.025583282113066
 30
0.0
 11
8.224748741912844
 21
9.270076766610146
 31
0.0
  0
LINE
  5
13B
330
1F
100
AcDbEntity
  8
0
100
AcDbLine
 10
32.435499798584
 20
-10.86356876790524
 30
0.0
 11
31.24606765441893
 21
-12.21692560613155
 31
0.0
  0
LINE
  5
13C
330
1F
100
AcDbEntity
  8
0
100
AcDbLine
 10
4.944362532424928
 20
-2.535401329398156
 30
0.0
 11
4.746391426849366
 21
-0.9634227603673959
 31
0.0
  0
LINE
  5
13D
330
1F
100
AcDbEntity
  8
0
100
AcDbLine
 10
32.53945792846679
 20
2.197149291634557
 30
0.0
 11
32.69949973754882
 21
0.620857253670692
 31
0.0
  0
LINE
  5
13E
330
1F
100
AcDbEntity
  8
0
100
AcDbLine
 10
15.02790321044922
 20
-13.50908993184566
 30
0.0
 11
13.71178592376709
 21
-13.07898186147213
 31
0.0
  0
LINE
  5
13F
330
1F
100
AcDbEntity
  8
0
100
AcDbLine
 10
18.26281417541504
 20
17.49129869043826
 30
0.0
 11
20.06397308044434
 21
17.44490052759647
 31
0.0
  0
LINE
  5
140
330
1F
100
AcDbEntity
  8
0
100
AcDbLine
 10
33.47947372131348
 20
-9.395086273550989
 30
0.0
 11
32.435499798584
 21
-10.86356876790524
 31
0.0
  0
LINE
  5
141
330
1F
100
AcDbEntity
  8
0
100
AcDbLine
 10
14.83527911834717
 20
13.44924165308477
 30
0.0
 11
16.38006843261719
 21
13.80128480494024
 31
0.0
  0
LINE
  5
142
330
1F
100
AcDbEntity
  8
0
100
AcDbLine
 10
10.57464469604492
 20
11.38834764063359
 30
0.0
 11
11.91385902099609
 21
12.2349987179041
 31
0.0
  0
LINE
  5
143
330
1F
100
AcDbEntity
  8
0
100
AcDbLine
 10
26.93799651794432
 20
15.44397355616094
 30
0.0
 11
28.48266853027345
 21
14.51644517481328
 31
0.0
  0
LINE
  5
144
330
1F
100
AcDbEntity
  8
0
100
AcDbLine
 10
31.01632941894532
 20
6.678262725472448
 30
0.0
 11
31.69244636230469
 21
5.245372787117955
 31
0.0
  0
LINE
  5
145
330
1F
100
AcDbEntity
  8
0
100
AcDbLine
 10
19.57942832641601
 20
15.17470084497933
 30
0.0
 11
19.69821036987305
 21
15.50104819605354
 31
0.0
  0
LINE
  5
146
330
1F
100
AcDbEntity
  8
0
100
AcDbLine
 10
32.6804148071289
 20
-0.9634227603673959
 30
0.0
 11
32.48244155578612
 21
-2.535401329398156
 31
0.0
  0
LINE
  5
147
330
1F
100
AcDbEntity
  8
0
100
AcDbLine
 10
25.5129457824707
 20
12.2349987179041
 30
0.0
 11
26.85216201477052
 21
11.38834764063359
 31
0.0
  0
LINE
  5
148
330
1F
100
AcDbEntity
  8
0
100
AcDbLine
 10
8.224748741912844
 20
9.270076766610146
 30
0.0
 11
9.339668881225586
 21
10.39580346643924
 31
0.0
  0
LINE
  5
149
330
1F
100
AcDbEntity
  8
0
100
AcDbLine
 10
36.1901975982666
 20
0.8979740291833858
 30
0.0
 11
36.1901975982666
 21
-0.9037799686193478
 31
0.0
  0
LINE
  5
14A
330
1F
100
AcDbEntity
  8
0
100
AcDbLine
 10
21.04673637084961
 20
13.80128480494024
 30
0.0
 11
22.59152473144531
 21
13.44924165308477
 31
0.0
  0
LINE
  5
14B
330
1F
100
AcDbEntity
  8
0
100
AcDbLine
 10
17.84737647705078
 20
15.17470084497933
 30
0.0
 11
18.07061446838379
 21
14.90865432093146
 31
0.0
  0
LINE
  5
14C
330
1F
100
AcDbEntity
  8
0
100
AcDbLine
 10
28.48266853027345
 20
14.51644517481328
 30
0.0
 11
29.92378295593261
 21
13.43500520288945
 31
0.0
  0
LINE
  5
14D
330
1F
100
AcDbEntity
  8
0
100
AcDbLine
 10
32.48244155578612
 20
-2.535401329398156
 30
0.0
 11
32.10812057189941
 21
-4.074943527579308
 31
0.0
  0
LINE
  5
14E
330
1F
100
AcDbEntity
  8
0
100
AcDbLine
 10
30.1826406829834
 20
8.025583282113066
 30
0.0
 11
31.01632941894532
 21
6.678262725472448
 31
0.0
  0
LINE
  5
14F
330
1F
100
AcDbEntity
  8
0
100
AcDbLine
 10
25.30613959960938
 20
16.20776750147342
 30
0.0
 11
26.93799651794432
 21
15.44397355616094
 31
0.0
  0
LINE
  5
150
330
1F
100
AcDbEntity
  8
0
100
AcDbLine
 10
29.2020555847168
 20
9.270076766610146
 30
0.0
 11
30.1826406829834
 21
8.025583282113066
 31
0.0
  0
LINE
  5
151
330
1F
100
AcDbEntity
  8
0
100
AcDbLine
 10
6.410474907684327
 20
6.678262725472448
 30
0.0
 11
7.244165074157716
 21
8.025583282113066
 31
0.0
  0
LINE
  5
152
330
1F
100
AcDbEntity
  8
0
100
AcDbLine
 10
5.734357964324952
 20
5.245372787117955
 30
0.0
 11
6.410474907684327
 21
6.678262725472448
 31
0.0
  0
LINE
  5
153
330
1F
100
AcDbEntity
  8
0
100
AcDbLine
 10
23.60440124206543
 20
16.79972077906132
 30
0.0
 11
25.30613959960938
 21
16.20776750147342
 31
0.0
  0
LINE
  5
154
330
1F
100
AcDbEntity
  8
0
100
AcDbLine
 10
19.35619033508301
 20
14.90865432093146
 30
0.0
 11
19.57942832641601
 21
15.17470084497933
 31
0.0
  0
LINE
  5
155
330
1F
100
AcDbEntity
  8
0
100
AcDbLine
 10
16.46643127136231
 20
17.35224153101443
 30
0.0
 11
18.26281417541504
 21
17.49129869043826
 31
0.0
  0
LINE
  5
156
330
1F
100
AcDbEntity
  8
0
100
AcDbLine
 10
20.71156371765137
 20
13.74022294580936
 30
0.0
 11
20.57947028808594
 21
13.62858392298221
 31
0.0
  0
LINE
  5
157
330
1F
100
AcDbEntity
  8
0
100
AcDbLine
 10
18.88705123596191
 20
16.65950309107306
 30
0.0
 11
18.53975356750489
 21
16.65950309107306
 31
0.0
  0
LINE
  5
158
330
1F
100
AcDbEntity
  8
0
100
AcDbLine
 10
18.7134024017334
 20
14.67469893763069
 30
0.0
 11
19.05542243652344
 21
14.73500357935431
 31
0.0
  0
LINE
  5
159
330
1F
100
AcDbEntity
  8
0
100
AcDbLine
 10
18.53975356750489
 20
16.65950309107306
 30
0.0
 11
18.37138236694336
 21
16.61439048120979
 31
0.0
  0
LINE
  5
15A
330
1F
100
AcDbEntity
  8
0
100
AcDbLine
 10
2.677856814193726
 20
-7.010846123099325
 30
0.0
 11
2.042283188629151
 21
-5.324912056326867
 31
0.0
  0
LINE
  5
15B
330
1F
100
AcDbEntity
  8
0
100
AcDbLine
 10
1.2134024017334
 20
-0.002902969717981
 30
0.0
 11
1.306154679584506
 21
1.796464934945105
 31
0.0
  0
LINE
  5
15C
330
1F
100
AcDbEntity
  8
0
100
AcDbLine
 10
19.65309585266113
 20
16.01671897242074
 30
0.0
 11
19.47944701843262
 21
16.31748496363167
 31
0.0
  0
LINE
  5
15D
330
1F
100
AcDbEntity
  8
0
100
AcDbLine
 10
12.96391071014405
 20
-16.53146462142467
 30
0.0
 11
11.29490054779053
 21
-15.85269246995449
 31
0.0
  0
LINE
  5
15E
330
1F
100
AcDbEntity
  8
0
100
AcDbLine
 10
16.9634024017334
 20
0.6110592037439331
 30
0.0
 11
16.95586837463379
 21
13.39475251734258
 31
0.0
  0
LINE
  5
15F
330
1F
100
AcDbEntity
  8
0
100
AcDbLine
 10
6.826119553375245
 20
-12.84589718282223
 30
0.0
 11
5.568593632507325
 21
-11.55556438863277
 31
0.0
  0
LINE
  5
160
330
1F
100
AcDbEntity
  8
0
100
AcDbLine
 10
1.306154679584506
 20
-1.802269920706751
 30
0.0
 11
1.2134024017334
 21
-0.002902969717981
 31
0.0
  0
LINE
  5
161
330
1F
100
AcDbEntity
  8
0
100
AcDbLine
 10
23.60440124206543
 20
-16.80552493035793
 30
0.0
 11
21.85081542663574
 21
-17.21936739981174
 31
0.0
  0
LINE
  5
162
330
1F
100
AcDbEntity
  8
0
100
AcDbLine
 10
19.2134024017334
 20
16.54072104761604
 30
0.0
 11
18.88705123596191
 21
16.65950309107306
 31
0.0
  0
LINE
  5
163
330
1F
100
AcDbEntity
  8
0
100
AcDbLine
 10
3.483410727310183
 20
-8.622494682669641
 30
0.0
 11
2.677856814193726
 21
-7.010846123099325
 31
0.0
  0
LINE
  5
164
330
1F
100
AcDbEntity
  8
0
100
AcDbLine
 10
18.37138236694336
 20
14.73500357935431
 30
0.0
 11
18.7134024017334
 21
14.67469893763069
 31
0.0
  0
LINE
  5
165
330
1F
100
AcDbEntity
  8
0
100
AcDbLine
 10
14.69386638336182
 20
17.02922441065312
 30
0.0
 11
16.46643127136231
 21
17.35224153101443
 31
0.0
  0
LINE
  5
166
330
1F
100
AcDbEntity
  8
0
100
AcDbLine
 10
20.4634024017334
 20
13.30827714502811
 30
0.0
 11
20.4634024017334
 21
0.6110592037439331
 31
0.0
  0
LINE
  5
167
330
1F
100
AcDbEntity
  8
0
100
AcDbLine
 10
9.704528462219239
 20
-15.00590895116329
 30
0.0
 11
8.209652077484133
 21
-14.00008986890316
 31
0.0
  0
LINE
  5
168
330
1F
100
AcDbEntity
  8
0
100
AcDbLine
 10
4.450406681823733
 20
-10.14277265965939
 30
0.0
 11
3.483410727310183
 21
-8.622494682669641
 31
0.0
  0
LINE
  5
169
330
1F
100
AcDbEntity
  8
0
100
AcDbLine
 10
14.69386638336182
 20
-17.03502885997295
 30
0.0
 11
12.96391071014405
 21
-16.53146462142467
 31
0.0
  0
LINE
  5
16A
330
1F
100
AcDbEntity
  8
0
100
AcDbLine
 10
5.568593632507325
 20
11.54975892603397
 30
0.0
 11
6.826119553375245
 21
12.84009172022341
 31
0.0
  0
LINE
  5
16B
330
1F
100
AcDbEntity
  8
0
100
AcDbLine
 10
2.677856814193726
 20
7.005041137337683
 30
0.0
 11
3.483410727310183
 21
8.616687789559375
 31
0.0
  0
LINE
  5
16C
330
1F
100
AcDbEntity
  8
0
100
AcDbLine
 10
1.583428036499025
 20
3.576757445931433
 30
0.0
 11
2.042283188629151
 21
5.31910707056522
 31
0.0
  0
LINE
  5
16D
330
1F
100
AcDbEntity
  8
0
100
AcDbLine
 10
29.92378295593261
 20
-13.4408111423254
 30
0.0
 11
28.48266853027345
 21
-14.52225063741207
 31
0.0
  0
LINE
  5
16E
330
1F
100
AcDbEntity
  8
0
100
AcDbLine
 10
3.483410727310183
 20
8.616687789559375
 30
0.0
 11
4.450406681823733
 21
10.13696672022342
 31
0.0
  0
LINE
  5
16F
330
1F
100
AcDbEntity
  8
0
100
AcDbLine
 10
5.568593632507325
 20
-11.55556438863277
 30
0.0
 11
4.450406681823733
 21
-10.14277265965939
 31
0.0
  0
LINE
  5
170
330
1F
100
AcDbEntity
  8
0
100
AcDbLine
 10
9.704528462219239
 20
15.00010301172735
 30
0.0
 11
11.29490054779053
 21
15.84688569605351
 31
0.0
  0
LINE
  5
171
330
1F
100
AcDbEntity
  8
0
100
AcDbLine
 10
31.24606765441893
 20
-12.21692560613155
 30
0.0
 11
29.92378295593261
 21
-13.4408111423254
 31
0.0
  0
LINE
  5
172
330
1F
100
AcDbEntity
  8
0
100
AcDbLine
 10
2.042283188629151
 20
-5.324912056326867
 30
0.0
 11
1.583428036499025
 21
-3.582564339041711
 31
0.0
  0
LINE
  5
173
330
1F
100
AcDbEntity
  8
0
100
AcDbLine
 10
16.93349040679932
 20
-13.48442696034908
 30
0.0
 11
16.9634024017334
 21
-13.31408213078976
 31
0.0
  0
LINE
  5
174
330
1F
100
AcDbEntity
  8
0
100
AcDbLine
 10
26.93799651794432
 20
-15.44978187978268
 30
0.0
 11
25.30613959960938
 21
-16.21357248723507
 31
0.0
  0
LINE
  5
175
330
1F
100
AcDbEntity
  8
0
100
AcDbLine
 10
2.042283188629151
 20
5.31910707056522
 30
0.0
 11
2.677856814193726
 21
7.005041137337683
 31
0.0
  0
LINE
  5
176
330
1F
100
AcDbEntity
  8
0
100
AcDbLine
 10
20.60984862976074
 20
0.2575035244226424
 30
0.0
 11
29.29553855590819
 21
-8.417736038565634
 31
0.0
  0
LINE
  5
177
330
1F
100
AcDbEntity
  8
0
100
AcDbLine
 10
33.47947372131348
 20
9.389280334115032
 30
0.0
 11
34.36692870788574
 21
7.821239486336705
 31
0.0
  0
LINE
  5
178
330
1F
100
AcDbEntity
  8
0
100
AcDbLine
 10
1.583428036499025
 20
-3.582564339041711
 30
0.0
 11
1.306154679584506
 21
-1.802269920706751
 31
0.0
  0
LINE
  5
179
330
1F
100
AcDbEntity
  8
0
100
AcDbLine
 10
25.30613959960938
 20
-16.21357248723507
 30
0.0
 11
23.60440124206543
 21
-16.80552493035793
 31
0.0
  0
LINE
  5
17A
330
1F
100
AcDbEntity
  8
0
100
AcDbLine
 10
20.06397308044434
 20
-17.45070978999138
 30
0.0
 11
18.26281417541504
 21
-17.49710083007812
 31
0.0
  0
LINE
  5
17B
330
1F
100
AcDbEntity
  8
0
100
AcDbLine
 10
21.85081542663574
 20
-17.21936739981174
 30
0.0
 11
20.06397308044434
 21
-17.45070978999138
 31
0.0
  0
LINE
  5
17C
330
1F
100
AcDbEntity
  8
0
100
AcDbLine
 10
11.29490054779053
 20
-15.85269246995449
 30
0.0
 11
9.704528462219239
 21
-15.00590895116329
 31
0.0
  0
LINE
  5
17D
330
1F
100
AcDbEntity
  8
0
100
AcDbLine
 10
28.48266853027345
 20
-14.52225063741207
 30
0.0
 11
26.93799651794432
 21
-15.44978187978268
 31
0.0
  0
LINE
  5
17E
330
1F
100
AcDbEntity
  8
0
100
AcDbLine
 10
18.07061446838379
 20
16.44073783228401
 30
0.0
 11
17.84737647705078
 21
16.17469703028205
 31
0.0
  0
LINE
  5
17F
330
1F
100
AcDbEntity
  8
0
100
AcDbLine
 10
18.26281417541504
 20
-17.49710083007812
 30
0.0
 11
16.46643127136231
 21
-17.35804878175259
 31
0.0
  0
LINE
  5
180
330
1F
100
AcDbEntity
  8
0
100
AcDbLine
 10
17.7134024017334
 20
15.67469703028204
 30
0.0
 11
17.77370895080567
 21
15.33267890284064
 31
0.0
  0
LINE
  5
181
330
1F
100
AcDbEntity
  8
0
100
AcDbLine
 10
20.57947028808594
 20
13.62858392298221
 30
0.0
 11
20.4634024017334
 21
13.30827714502811
 31
0.0
  0
LINE
  5
182
330
1F
100
AcDbEntity
  8
0
100
AcDbLine
 10
1.306154679584506
 20
1.796464934945105
 30
0.0
 11
1.583428036499025
 21
3.576757445931433
 31
0.0
  0
LINE
  5
183
330
1F
100
AcDbEntity
  8
0
100
AcDbLine
 10
8.197050225067139
 20
-8.362400993704796
 30
0.0
 11
16.86791003875733
 21
0.3171653896570181
 31
0.0
  0
LINE
  5
184
330
1F
100
AcDbEntity
  8
0
100
AcDbLine
 10
12.96391071014405
 20
16.52565766870975
 30
0.0
 11
14.69386638336182
 21
17.02922441065312
 31
0.0
  0
LINE
  5
185
330
1F
100
AcDbEntity
  8
0
100
AcDbLine
 10
19.47944701843262
 20
16.31748496363167
 30
0.0
 11
19.2134024017334
 21
16.54072104761604
 31
0.0
  0
LINE
  5
186
330
1F
100
AcDbEntity
  8
0
100
AcDbLine
 10
6.826119553375245
 20
12.84009172022341
 30
0.0
 11
8.209652077484133
 21
13.99428559839726
 31
0.0
  0
LINE
  5
187
330
1F
100
AcDbEntity
  8
0
100
AcDbLine
 10
34.36692870788574
 20
-7.827044472098351
 30
0.0
 11
33.47947372131348
 21
-9.395086273550989
 31
0.0
  0
LINE
  5
188
330
1F
100
AcDbEntity
  8
0
100
AcDbLine
 10
32.2023340576172
 20
3.745264068245886
 30
0.0
 11
32.53945792846679
 21
2.197149291634557
 31
0.0
  0
LINE
  5
189
330
1F
100
AcDbEntity
  8
0
100
AcDbLine
 10
4.450406681823733
 20
10.13696672022342
 30
0.0
 11
5.568593632507325
 21
11.54975892603397
 31
0.0
  0
LINE
  5
18A
330
1F
100
AcDbEntity
  8
0
100
AcDbLine
 10
34.36692870788574
 20
7.821239486336705
 30
0.0
 11
35.08844817810058
 21
6.170259490609165
 31
0.0
  0
LINE
  5
18B
330
1F
100
AcDbEntity
  8
0
100
AcDbLine
 10
20.4634024017334
 20
-6.46001051366329
 30
0.0
 11
20.4634024017334
 21
-13.31408213078976
 31
0.0
  0
LINE
  5
18C
330
1F
100
AcDbEntity
  8
0
100
AcDbLine
 10
11.29490054779053
 20
15.84688569605351
 30
0.0
 11
12.96391071014405
 21
16.52565766870975
 31
0.0
  0
LINE
  5
18D
330
1F
100
AcDbEntity
  8
0
100
AcDbLine
 10
8.209652077484133
 20
13.99428559839726
 30
0.0
 11
9.704528462219239
 21
15.00010301172735
 31
0.0
  0
LINE
  5
18E
330
1F
100
AcDbEntity
  8
0
100
AcDbLine
 10
16.46643127136231
 20
-17.35804878175259
 30
0.0
 11
14.69386638336182
 21
-17.03502885997295
 31
0.0
  0
LINE
  5
18F
330
1F
100
AcDbEntity
  8
0
100
AcDbLine
 10
35.08844817810058
 20
6.170259490609165
 30
0.0
 11
35.63638747863769
 21
4.453842177987096
 31
0.0
  0
LINE
  5
190
330
1F
100
AcDbEntity
  8
0
100
AcDbLine
 10
16.9634024017334
 20
-13.31408213078976
 30
0.0
 11
16.9634024017334
 21
-6.46001051366329
 31
0.0
  0
LINE
  5
191
330
1F
100
AcDbEntity
  8
0
100
AcDbLine
 10
8.209652077484133
 20
-14.00008986890316
 30
0.0
 11
6.826119553375245
 21
-12.84589718282223
 31
0.0
  0
LINE
  5
192
330
1F
100
AcDbEntity
  8
0
100
AcDbLine
 10
16.9634024017334
 20
0.6110592037439331
 30
0.0
 11
16.86791003875733
 21
0.3171653896570181
 31
0.0
  0
LINE
  5
193
330
1F
100
AcDbEntity
  8
0
100
AcDbLine
 10
17.84737647705078
 20
16.17469703028205
 30
0.0
 11
17.72859443359375
 21
15.8483420498133
 31
0.0
  0
LINE
  5
194
330
1F
100
AcDbEntity
  8
0
100
AcDbLine
 10
26.38985694580078
 20
-11.59181450307369
 30
0.0
 11
26.41669334106445
 21
-11.3512377589941
 31
0.0
  0
LINE
  5
195
330
1F
100
AcDbEntity
  8
0
100
AcDbLine
 10
26.36929572753906
 20
-11.19603680074215
 30
0.0
 11
21.31695617370605
 21
-6.106455788016321
 31
0.0
  0
LINE
  5
196
330
1F
100
AcDbEntity
  8
0
100
AcDbLine
 10
16.95586837463379
 20
13.39475251734258
 30
0.0
 11
16.84733356170654
 21
13.62858392298221
 31
0.0
  0
LINE
  5
197
330
1F
100
AcDbEntity
  8
0
100
AcDbLine
 10
11.0782762878418
 20
-11.16146515309811
 30
0.0
 11
11.01491321258545
 21
-11.51344440877438
 31
0.0
  0
LINE
  5
198
330
1F
100
AcDbEntity
  8
0
100
AcDbLine
 10
21.04673637084961
 20
13.80128480494024
 30
0.0
 11
20.71156371765137
 21
13.74022294580936
 31
0.0
  0
LINE
  5
199
330
1F
100
AcDbEntity
  8
0
100
AcDbLine
 10
20.87378944091797
 20
-13.80598638951778
 30
0.0
 11
21.04673637084961
 21
-13.80708907544613
 31
0.0
  0
LINE
  5
19A
330
1F
100
AcDbEntity
  8
0
100
AcDbLine
 10
20.4634024017334
 20
0.6110592037439331
 30
0.0
 11
20.60984862976074
 21
0.2575035244226424
 31
0.0
  0
LINE
  5
19B
330
1F
100
AcDbEntity
  8
0
100
AcDbLine
 10
21.01938499145508
 20
-5.963152870535851
 30
0.0
 11
20.69738639526367
 21
-6.036647781729699
 31
0.0
  0
LINE
  5
19C
330
1F
100
AcDbEntity
  8
0
100
AcDbLine
 10
20.4914614074707
 20
-6.294869408011436
 30
0.0
 11
20.4634024017334
 21
-6.46001051366329
 31
0.0
  0
LINE
  5
19D
330
1F
100
AcDbEntity
  8
0
100
AcDbLine
 10
7.440907608795166
 20
-8.305364593863487
 30
0.0
 11
7.639815937805179
 21
-8.465480789542198
 31
0.0
  0
LINE
  5
19E
330
1F
100
AcDbEntity
  8
0
100
AcDbLine
 10
16.57466281585693
 20
-5.972545608878137
 30
0.0
 11
16.24646056823731
 21
-6.009525284171104
 31
0.0
  0
LINE
  5
19F
330
1F
100
AcDbEntity
  8
0
100
AcDbLine
 10
18.37138236694336
 20
16.61439048120979
 30
0.0
 11
18.07061446838379
 21
16.44073783228401
 31
0.0
  0
LINE
  5
1A0
330
1F
100
AcDbEntity
  8
0
100
AcDbLine
 10
26.18808997802735
 20
-11.84051464498043
 30
0.0
 11
26.38985694580078
 21
-11.59181450307369
 31
0.0
  0
LINE
  5
1A1
330
1F
100
AcDbEntity
  8
0
100
AcDbLine
 10
19.69821036987305
 20
15.50104819605354
 30
0.0
 11
19.69821036987305
 21
15.8483420498133
 31
0.0
  0
LINE
  5
1A2
330
1F
100
AcDbEntity
  8
0
100
AcDbLine
 10
29.29553855590819
 20
-8.417736038565634
 30
0.0
 11
29.53495849304199
 21
-8.506504997611048
 31
0.0
  0
LINE
  5
1A3
330
1F
100
AcDbEntity
  8
0
100
AcDbLine
 10
17.72859443359375
 20
15.8483420498133
 30
0.0
 11
17.7134024017334
 21
15.67469703028204
 31
0.0
  0
LINE
  5
1A4
330
1F
100
AcDbEntity
  8
0
100
AcDbLine
 10
16.10984958343506
 20
-6.106455788016321
 30
0.0
 11
11.0782762878418
 21
-11.16146515309811
 31
0.0
  0
LINE
  5
1A5
330
1F
100
AcDbEntity
  8
0
100
AcDbLine
 10
16.71524013214111
 20
-13.74602864682674
 30
0.0
 11
16.93349040679932
 21
-13.48442696034908
 31
0.0
  0
LINE
  5
1A6
330
1F
100
AcDbEntity
  8
0
100
AcDbLine
 10
16.38006843261719
 20
-13.80708907544613
 30
0.0
 11
16.71524013214111
 21
-13.74602864682674
 31
0.0
  0
LINE
  5
1A7
330
1F
100
AcDbEntity
  8
0
100
AcDbLine
 10
8.056975018310549
 20
-8.460983261466025
 30
0.0
 11
8.197050225067139
 21
-8.362400993704796
 31
0.0
  0
LINE
  5
1A8
330
1F
100
AcDbEntity
  8
0
100
AcDbLine
 10
16.63674033813477
 20
13.77726747095584
 30
0.0
 11
16.38006843261719
 21
13.80128480494024
 31
0.0
  0
LINE
  5
1A9
330
1F
100
AcDbEntity
  8
0
100
AcDbLine
 10
29.70576347045899
 20
-8.493620857596396
 30
0.0
 11
29.9858976715088
 21
-8.305364593863487
 31
0.0
  0
LINE
  5
1AA
330
1F
100
AcDbEntity
  8
0
100
AcDbLine
 10
21.31695617370605
 20
-6.106455788016321
 30
0.0
 11
21.01938499145508
 21
-5.963152870535851
 31
0.0
  0
LINE
  5
1AB
330
1F
100
AcDbEntity
  8
0
100
AcDbLine
 10
16.24646056823731
 20
-6.009525284171104
 30
0.0
 11
16.10984958343506
 21
-6.106455788016321
 31
0.0
  0
LINE
  5
1AC
330
1F
100
AcDbEntity
  8
0
100
AcDbLine
 10
16.8543182723999
 20
-6.14826487004757
 30
0.0
 11
16.57466281585693
 21
-5.972545608878137
 31
0.0
  0
LINE
  5
1AD
330
1F
100
AcDbEntity
  8
0
100
AcDbLine
 10
26.41669334106445
 20
-11.3512377589941
 30
0.0
 11
26.36929572753906
 21
-11.19603680074215
 31
0.0
  0
LINE
  5
1AE
330
1F
100
AcDbEntity
  8
0
100
AcDbLine
 10
20.4634024017334
 20
-13.31408213078976
 30
0.0
 11
20.57947028808594
 21
-13.63438914716244
 31
0.0
  0
LINE
  5
1AF
330
1F
100
AcDbEntity
  8
0
100
AcDbLine
 10
7.805887352752689
 20
-8.507431015372276
 30
0.0
 11
8.056975018310549
 21
-8.460983261466025
 31
0.0
  0
LINE
  5
1B0
330
1F
100
AcDbEntity
  8
0
100
AcDbLine
 10
19.05542243652344
 20
14.73500357935431
 30
0.0
 11
19.35619033508301
 21
14.90865432093146
 31
0.0
  0
LINE
  5
1B1
330
1F
100
AcDbEntity
  8
0
100
AcDbLine
 10
29.53495849304199
 20
-8.506504997611048
 30
0.0
 11
29.70576347045899
 21
-8.493620857596396
 31
0.0
  0
LINE
  5
1B2
330
1F
100
AcDbEntity
  8
0
100
AcDbLine
 10
11.11738170318604
 20
-11.73275612294674
 30
0.0
 11
12.4445921295166
 21
-12.52097080647945
 31
0.0
  0
LINE
  5
1B3
330
1F
100
AcDbEntity
  8
0
100
AcDbLine
 10
20.69738639526367
 20
-6.036647781729699
 30
0.0
 11
20.4914614074707
 21
-6.294869408011436
 31
0.0
  0
LINE
  5
1B4
330
1F
100
AcDbEntity
  8
0
100
AcDbLine
 10
11.01491321258545
 20
-11.51344440877438
 30
0.0
 11
11.11738170318604
 21
-11.73275612294674
 31
0.0
  0
LINE
  5
1B5
330
1F
100
AcDbEntity
  8
0
100
AcDbLine
 10
20.57947028808594
 20
-13.63438914716244
 30
0.0
 11
20.87378944091797
 21
-13.80598638951778
 31
0.0
  0
LINE
  5
1B6
330
1F
100
AcDbEntity
  8
0
100
AcDbLine
 10
7.639815937805179
 20
-8.465480789542198
 30
0.0
 11
7.805887352752689
 21
-8.507431015372276
 31
0.0
  0
LINE
  5
1B7
330
1F
100
AcDbEntity
  8
0
100
AcDbLine
 10
19.69821036987305
 20
15.8483420498133
 30
0.0
 11
19.65309585266113
 21
16.01671897242074
 31
0.0
  0
LINE
  5
1B8
330
1F
100
AcDbEntity
  8
0
100
AcDbLine
 10
16.9634024017334
 20
-6.46001051366329
 30
0.0
 11
16.8543182723999
 21
-6.14826487004757
 31
0.0
  0
LINE
  5
1B9
330
1F
100
AcDbEntity
  8
0
100
AcDbLine
 10
16.84733356170654
 20
13.62858392298221
 30
0.0
 11
16.63674033813477
 21
13.77726747095584
 31
0.0
  0
ENDSEC
  0
SECTION
  2
OBJECTS
  0
DICTIONARY
  5
C
330
0
100
AcDbDictionary
  3
ACAD_GROUP
350
D
  3
ACAD_LAYOUT
350
1A
  3
ACAD_MATERIAL
350
43
  3
ACAD_MLEADERSTYLE
350
1DC
  3
ACAD_MLINESTYLE
350
17
  3
ACAD_PLOTSETTINGS
350
19
  3
ACAD_SCALELIST
350
47
  3
ACAD_VISUALSTYLE
350
2A
  3
ACDBHEADERROUNDTRIPXREC
350
1BA
  3
ACDBVARIABLEDICTIONARY
350
1DA
  0
DICTIONARY
  5
1E1
330
8
100
AcDbDictionary
280
     1
  3
ACAD_XREC_ROUNDTRIP
360
1E2
  0
DICTIONARY
  5
D
102
{ACAD_REACTORS
330
C
102
}
330
C
100
AcDbDictionary
  0
DICTIONARY
  5
1A
102
{ACAD_REACTORS
330
C
102
}
330
C
100
AcDbDictionary
  0
DICTIONARY
  5
43
102
{ACAD_REACTORS
330
C
102
}
330
C
100
AcDbDictionary
  3
BYBLOCK
350
45
  3
BYLAYER
350
44
  3
GLOBAL
350
46
  0
DICTIONARY
  5
1DC
102
{ACAD_REACTORS
330
C
102
}
330
C
100
AcDbDictionary
  0
DICTIONARY
  5
17
102
{ACAD_REACTORS
330
C
102
}
330
C
100
AcDbDictionary
  3
STANDARD
350
18
  0
DICTIONARY
  5
19
102
{ACAD_REACTORS
330
C
102
}
330
C
100
AcDbDictionary
  0
DICTIONARY
  5
47
102
{ACAD_REACTORS
330
C
102
}
330
C
100
AcDbDictionary
  3
A0
350
48
  3
A1
350
49
  3
A2
350
4A
  3
A3
350
4B
  3
A4
350
4C
  3
A5
350
4D
  3
A6
350
4E
  3
A7
350
4F
  3
A8
350
50
  3
A9
350
51
  3
B0
350
52
  3
B1
350
53
  3
B2
350
54
  3
B3
350
55
  3
B4
350
56
  3
B5
350
57
  3
B6
350
58
  3
B7
350
59
  3
B8
350
5A
  3
B9
350
5B
  3
C0
350
5C
  3
C1
350
5D
  3
C2
350
5E
  3
C3
350
5F
  3
C4
350
60
  3
C5
350
61
  3
C6
350
62
  3
C7
350
63
  3
C8
350
64
  3
C9
350
65
  3
D0
350
66
  3
D1
350
67
  3
D2
350
68
  0
DICTIONARY
  5
2A
102
{ACAD_REACTORS
330
C
102
}
330
C
100
AcDbDictionary
  3
2DWIREFRAME
350
2F
  3
BASIC
350
32
  3
BRIGHTEN
350
36
  3
COLORCHANGE
350
3A
  3
CONCEPTUAL
350
34
  3
DIM
350
35
  3
EDGECOLOROFF
350
3D
  3
FACEPATTERN
350
39
  3
FLAT
350
2B
  3
FLATWITHEDGES
350
2C
  3
GOURAUD
350
2D
  3
GOURAUDWITHEDGES
350
2E
  3
HIDDEN
350
31
  3
JITTEROFF
350
3B
  3
LINEPATTERN
350
38
  3
OVERHANGOFF
350
3C
  3
REALISTIC
350
33
  3
SHADED
350
42
  3
SHADED_WITH_EDGES
350
41
  3
SHADES_OF_GRAY
350
3E
  3
SKETCHY
350
3F
  3
THICKEN
350
37
  3
WIREFRAME
350
30
  3
X-RAY
350
40
  0
DICTIONARY
  5
1BA
102
{ACAD_REACTORS
330
C
102
}
330
C
100
AcDbDictionary
  3
CEPSNTYPE
350
1C3
  3
DIMSTYLEDATA
350
1D9
  3
FINGERPRINTGUID
350
1C4
  3
HYPERLINKBASE
350
1BD
  3
INSUNITS
350
1C2
  3
LAYOUTDICT
350
1BF
  3
LWETCUNION
350
1C1
  3
PLOTSETDICT
350
1C0
  3
PSVPSCALE
350
1C6
  3
PUCSBASE
350
1C9
  3
PUCSORGBACK
350
1CF
  3
PUCSORGBOTTOM
350
1CB
  3
PUCSORGFRONT
350
1CE
  3
PUCSORGLEFT
350
1CC
  3
PUCSORGRIGHT
350
1CD
  3
PUCSORGTOP
350
1CA
  3
PUCSORTHOREF
350
1C7
  3
PUCSORTHOVIEW
350
1C8
  3
STYLESHEET
350
1BE
  3
TSTACKALIGN
350
1BB
  3
TSTACKSIZE
350
1BC
  3
UCSBASE
350
1D2
  3
UCSORGBACK
350
1D8
  3
UCSORGBOTTOM
350
1D4
  3
UCSORGFRONT
350
1D7
  3
UCSORGLEFT
350
1D5
  3
UCSORGRIGHT
350
1D6
  3
UCSORGTOP
350
1D3
  3
UCSORTHOREF
350
1D0
  3
UCSORTHOVIEW
350
1D1
  3
VERSIONGUID
350
1C5
  0
DICTIONARY
  5
1DA
102
{ACAD_REACTORS
330
C
102
}
330
C
100
AcDbDictionary
  3
CANNOSCALE
350
1E3
  3
DIMASSOC
350
1DF
  3
HIDETEXT
350
1E0
  3
MSLTSCALE
350
1E4
  0
XRECORD
  5
1E2
102
{ACAD_REACTORS
330
1E1
102
}
330
1E1
100
AcDbXrecord
102
VTR_0.000_0.000_1.000_1.000_GRIDDISPLAY
 70
     3
102
VTR_0.000_0.000_1.000_1.000_GRIDMAJOR
 70
     5
102
VTR_0.000_0.000_1.000_1.000_DEFAULTLIGHTING
280
     1
102
VTR_0.000_0.000_1.000_1.000_DEFAULTLIGHTINGTYPE
 70
     1
102
VTR_0.000_0.000_1.000_1.000_BRIGHTNESS
141
0.0
102
VTR_0.000_0.000_1.000_1.000_CONTRAST
142
0.0
  0
MATERIAL
  5
45
102
{ACAD_REACTORS
330
43
102
}
102
{ACAD_XDICTIONARY
360
1E7
102
}
330
43
100
AcDbMaterial
  1
BYBLOCK
  0
MATERIAL
  5
44
102
{ACAD_REACTORS
330
43
102
}
102
{ACAD_XDICTIONARY
360
1E5
102
}
330
43
100
AcDbMaterial
  1
BYLAYER
  0
MATERIAL
  5
46
102
{ACAD_REACTORS
330
43
102
}
102
{ACAD_XDICTIONARY
360
1E9
102
}
330
43
100
AcDbMaterial
  1
GLOBAL
  0
MLINESTYLE
  5
18
102
{ACAD_REACTORS
330
17
102
}
330
17
100
AcDbMlineStyle
  2
Standard
 70
     0
  3

 62
   256
 51
90.0
 52
90.0
 71
     2
 49
0.5
 62
   256
  6
BYLAYER
 49
-0.5
 62
   256
  6
BYLAYER
  0
ACAD_PROXY_OBJECT
  5
48
102
{ACAD_REACTORS
330
47
102
}
330
47
100
AcDbProxyObject
 90
      499
 91
      503
 93
       41
310
903313A31580
  0
ACAD_PROXY_OBJECT
  5
49
102
{ACAD_REACTORS
330
47
102
}
330
47
100
AcDbProxyObject
 90
      499
 91
      503
 93
      105
310
903313A324000000000000004000
  0
ACAD_PROXY_OBJECT
  5
4A
102
{ACAD_REACTORS
330
47
102
}
330
47
100
AcDbProxyObject
 90
      499
 91
      503
 93
      105
310
903313A344000000000000104000
  0
ACAD_PROXY_OBJECT
  5
4B
102
{ACAD_REACTORS
330
47
102
}
330
47
100
AcDbProxyObject
 90
      499
 91
      503
 93
      105
310
903313A354000000000000144000
  0
ACAD_PROXY_OBJECT
  5
4C
102
{ACAD_REACTORS
330
47
102
}
330
47
100
AcDbProxyObject
 90
      499
 91
      503
 93
      105
310
903313A384000000000000204000
  0
ACAD_PROXY_OBJECT
  5
4D
102
{ACAD_REACTORS
330
47
102
}
330
47
100
AcDbProxyObject
 90
      499
 91
      503
 93
      113
310
904313A31304000000000000244000
  0
ACAD_PROXY_OBJECT
  5
4E
102
{ACAD_REACTORS
330
47
102
}
330
47
100
AcDbProxyObject
 90
      499
 91
      503
 93
      113
310
904313A31364000000000000304000
  0
ACAD_PROXY_OBJECT
  5
4F
102
{ACAD_REACTORS
330
47
102
}
330
47
100
AcDbProxyObject
 90
      499
 91
      503
 93
      113
310
904313A32304000000000000344000
  0
ACAD_PROXY_OBJECT
  5
50
102
{ACAD_REACTORS
330
47
102
}
330
47
100
AcDbProxyObject
 90
      499
 91
      503
 93
      113
310
904313A333040000000000003E4000
  0
ACAD_PROXY_OBJECT
  5
51
102
{ACAD_REACTORS
330
47
102
}
330
47
100
AcDbProxyObject
 90
      499
 91
      503
 93
      113
310
904313A34304000000000000444000
  0
ACAD_PROXY_OBJECT
  5
52
102
{ACAD_REACTORS
330
47
102
}
330
47
100
AcDbProxyObject
 90
      499
 91
      503
 93
      113
310
904313A35304000000000000494000
  0
ACAD_PROXY_OBJECT
  5
53
102
{ACAD_REACTORS
330
47
102
}
330
47
100
AcDbProxyObject
 90
      499
 91
      503
 93
      121
310
905313A3130304000000000000594000
  0
ACAD_PROXY_OBJECT
  5
54
102
{ACAD_REACTORS
330
47
102
}
330
47
100
AcDbProxyObject
 90
      499
 91
      503
 93
      105
310
903323A310000000000000010100
  0
ACAD_PROXY_OBJECT
  5
55
102
{ACAD_REACTORS
330
47
102
}
330
47
100
AcDbProxyObject
 90
      499
 91
      503
 93
      105
310
903343A310000000000000410100
  0
ACAD_PROXY_OBJECT
  5
56
102
{ACAD_REACTORS
330
47
102
}
330
47
100
AcDbProxyObject
 90
      499
 91
      503
 93
      105
310
903383A310000000000000810100
  0
ACAD_PROXY_OBJECT
  5
57
102
{ACAD_REACTORS
330
47
102
}
330
47
100
AcDbProxyObject
 90
      499
 91
      503
 93
      113
310
90431303A310000000000000910100
  0
ACAD_PROXY_OBJECT
  5
58
102
{ACAD_REACTORS
330
47
102
}
330
47
100
AcDbProxyObject
 90
      499
 91
      503
 93
      121
310
9053130303A310000000000001650100
  0
ACAD_PROXY_OBJECT
  5
59
102
{ACAD_REACTORS
330
47
102
}
330
47
100
AcDbProxyObject
 90
      499
 91
      503
 93
      257
310
90E312F31323822203D2031272D3022000000000000200FC000000000000284000
  0
ACAD_PROXY_OBJECT
  5
5A
102
{ACAD_REACTORS
330
47
102
}
330
47
100
AcDbProxyObject
 90
      499
 91
      503
 93
      249
310
90D312F363422203D2031272D3022000000000000240FC000000000000284000
  0
ACAD_PROXY_OBJECT
  5
5B
102
{ACAD_REACTORS
330
47
102
}
330
47
100
AcDbProxyObject
 90
      499
 91
      503
 93
      249
310
90D312F333222203D2031272D3022000000000000280FC000000000000284000
  0
ACAD_PROXY_OBJECT
  5
5C
102
{ACAD_REACTORS
330
47
102
}
330
47
100
AcDbProxyObject
 90
      499
 91
      503
 93
      249
310
90D312F313622203D2031272D30220000000000002C0FC000000000000284000
  0
ACAD_PROXY_OBJECT
  5
5D
102
{ACAD_REACTORS
330
47
102
}
330
47
100
AcDbProxyObject
 90
      499
 91
      503
 93
      249
310
90D332F333222203D2031272D30220000000000002E0FC000000000000284000
  0
ACAD_PROXY_OBJECT
  5
5E
102
{ACAD_REACTORS
330
47
102
}
330
47
100
AcDbProxyObject
 90
      499
 91
      503
 93
      241
310
90C312F3822203D2031272D3022000000000000300FC000000000000284000
  0
ACAD_PROXY_OBJECT
  5
5F
102
{ACAD_REACTORS
330
47
102
}
330
47
100
AcDbProxyObject
 90
      499
 91
      503
 93
      249
310
90D332F313622203D2031272D3022000000000000320FC000000000000284000
  0
ACAD_PROXY_OBJECT
  5
60
102
{ACAD_REACTORS
330
47
102
}
330
47
100
AcDbProxyObject
 90
      499
 91
      503
 93
      241
310
90C312F3422203D2031272D3022000000000000340FC000000000000284000
  0
ACAD_PROXY_OBJECT
  5
61
102
{ACAD_REACTORS
330
47
102
}
330
47
100
AcDbProxyObject
 90
      499
 91
      503
 93
      241
310
90C332F3822203D2031272D3022000000000000360FC000000000000284000
  0
ACAD_PROXY_OBJECT
  5
62
102
{ACAD_REACTORS
330
47
102
}
330
47
100
AcDbProxyObject
 90
      499
 91
      503
 93
      241
310
90C312F3222203D2031272D3022000000000000380FC000000000000284000
  0
ACAD_PROXY_OBJECT
  5
63
102
{ACAD_REACTORS
330
47
102
}
330
47
100
AcDbProxyObject
 90
      499
 91
      503
 93
      241
310
90C332F3422203D2031272D30220000000000003A0FC000000000000284000
  0
ACAD_PROXY_OBJECT
  5
64
102
{ACAD_REACTORS
330
47
102
}
330
47
100
AcDbProxyObject
 90
      499
 91
      503
 93
      161
310
90A3122203D2031272D30224000000000000284000
  0
ACAD_PROXY_OBJECT
  5
65
102
{ACAD_REACTORS
330
47
102
}
330
47
100
AcDbProxyObject
 90
      499
 91
      503
 93
      257
310
90E312D312F3222203D2031272D30220000000000003E0FC000000000000284000
  0
ACAD_PROXY_OBJECT
  5
66
102
{ACAD_REACTORS
330
47
102
}
330
47
100
AcDbProxyObject
 90
      499
 91
      503
 93
      225
310
90A3322203D2031272D302200000000000002100000000000000284000
  0
ACAD_PROXY_OBJECT
  5
67
102
{ACAD_REACTORS
330
47
102
}
330
47
100
AcDbProxyObject
 90
      499
 91
      503
 93
      225
310
90A3622203D2031272D302200000000000006100000000000000284000
  0
ACAD_PROXY_OBJECT
  5
68
102
{ACAD_REACTORS
330
47
102
}
330
47
100
AcDbProxyObject
 90
      499
 91
      503
 93
      249
310
90D31272D3022203D2031272D30220000000000000A100000000000000284000
  0
ACAD_PROXY_OBJECT
  5
2F
102
{ACAD_REACTORS
330
2A
102
}
330
2A
100
AcDbProxyObject
 90
      499
 91
      501
 93
      436
310
42CC9915DA5C99599C985B595049028333333333333E33F0000000000000F90107901411070040501600405405064090741402480A0340
1001
ACAD
1000
AcDbSavedByObjectVersion
1070
     0
  0
ACAD_PROXY_OBJECT
  5
32
102
{ACAD_REACTORS
330
2A
102
}
330
2A
100
AcDbProxyObject
 90
      499
 91
      501
 93
      388
310
4150985CDA58D07406404333333333333E33F0000000000000F90107A41107004050150841D405064090741402480A0350
1001
ACAD
1000
AcDbSavedByObjectVersion
1070
     0
  0
ACAD_PROXY_OBJECT
  5
36
102
{ACAD_REACTORS
330
2A
102
}
330
2A
100
AcDbProxyObject
 90
      499
 91
      501
 93
      428
310
42109C9A59DA1D195B90C409028333333333333E33F0000000000000F9010790141107004050150841D405064090741402480A029950
1001
ACAD
1000
AcDbSavedByObjectVersion
1070
     0
  0
ACAD_PROXY_OBJECT
  5
3A
102
{ACAD_REACTORS
330
2A
102
}
330
2A
100
AcDbProxyObject
 90
      499
 91
      501
 93
      452
310
42D0DBDB1BDC90DA185B99D95104090240C333333333333E33F0000000000000F90108901411070040501508421405064090741402480A0350
1001
ACAD
1000
AcDbSavedByObjectVersion
1070
     0
  0
ACAD_PROXY_OBJECT
  5
34
102
{ACAD_REACTORS
330
2A
102
}
330
2A
100
AcDbProxyObject
 90
      499
 91
      501
 93
      500
310
4290DBDB98D95C1D1D585B10940D028333333333333E33F0000000000000F90107902409070040501000000000018199010841D405064090740C02480A0340
1001
ACAD
1000
AcDbSavedByObjectVersion
1070
     0
  0
ACAD_PROXY_OBJECT
  5
35
102
{ACAD_REACTORS
330
2A
102
}
330
2A
100
AcDbProxyObject
 90
      499
 91
      501
 93
      412
310
40D11A5B50B409028333333333333E33F0000000000000F9010790141107004050150841D405064090741402480A02677FFFFFD0
1001
ACAD
1000
AcDbSavedByObjectVersion
1070
     0
  0
ACAD_PROXY_OBJECT
  5
3D
102
{ACAD_REACTORS
330
2A
102
}
330
2A
100
AcDbProxyObject
 90
      499
 91
      501
 93
      452
310
43115919D950DBDB1BDC93D999916409028333333333333E33F0000000000000F9010790141107004050150841D405064090741402480A0350
1001
ACAD
1000
AcDbSavedByObjectVersion
1070
     0
  0
ACAD_PROXY_OBJECT
  5
39
102
{ACAD_REACTORS
330
2A
102
}
330
2A
100
AcDbProxyObject
 90
      499
 91
      501
 93
      444
310
42D19858D95C185D1D195C9B90F409028333333333333E33F0000000000000F9010790141107004050150841D405064090741402480A0350
1001
ACAD
1000
AcDbSavedByObjectVersion
1070
     0
  0
ACAD_PROXY_OBJECT
  5
2B
102
{ACAD_REACTORS
330
2A
102
}
330
2A
100
AcDbProxyObject
 90
      499
 91
      501
 93
      380
310
41119B185D240901404333333333333E33F0000000000000F9010740A907004050150841D405064090741402480A1B50
1001
ACAD
1000
AcDbSavedByObjectVersion
1070
     0
  0
ACAD_PROXY_OBJECT
  5
2C
102
{ACAD_REACTORS
330
2A
102
}
330
2A
100
AcDbProxyObject
 90
      499
 91
      501
 93
      468
310
43519B185D15DA5D1A115919D95CD0140901404333333333333E33F0000000000000F90107409019070040501600405405064090741402480A1B50
1001
ACAD
1000
AcDbSavedByObjectVersion
1070
     0
  0
ACAD_PROXY_OBJECT
  5
2D
102
{ACAD_REACTORS
330
2A
102
}
330
2A
100
AcDbProxyObject
 90
      499
 91
      501
 93
      404
310
41D1DBDD5C985D5910240902404333333333333E33F0000000000000F9010740A9070040501641D405064090741402480A1B50
1001
ACAD
1000
AcDbSavedByObjectVersion
1070
     0
  0
ACAD_PROXY_OBJECT
  5
2E
102
{ACAD_REACTORS
330
2A
102
}
330
2A
100
AcDbProxyObject
 90
      499
 91
      501
 93
      492
310
4411DBDD5C985D5915DA5D1A115919D95CD0340902404333333333333E33F0000000000000F90107409019070040501600405405064090741402480A1B50
1001
ACAD
1000
AcDbSavedByObjectVersion
1070
     0
  0
ACAD_PROXY_OBJECT
  5
31
102
{ACAD_REACTORS
330
2A
102
}
330
2A
100
AcDbProxyObject
 90
      499
 91
      501
 93
      476
310
41921A5919195B90640502408333333333333E33F0000000000000F901079024090700405020000000000001110200405405064090740C02480A0340
1001
ACAD
1000
AcDbSavedByObjectVersion
1070
     0
  0
ACAD_PROXY_OBJECT
  5
3B
102
{ACAD_REACTORS
330
2A
102
}
330
2A
100
AcDbProxyObject
 90
      499
 91
      501
 93
      428
310
42529A5D1D195C93D999914409028333333333333E33F0000000000000F9010790141107004050150A41D405064090741402480A0350
1001
ACAD
1000
AcDbSavedByObjectVersion
1070
     0
  0
ACAD_PROXY_OBJECT
  5
38
102
{ACAD_REACTORS
330
2A
102
}
330
2A
100
AcDbProxyObject
 90
      499
 91
      501
 93
      444
310
42D31A5B995C185D1D195C9B90E409028333333333333E33F0000000000000F9010790141107004050750841D405064090741402483A0350
1001
ACAD
1000
AcDbSavedByObjectVersion
1070
     0
  0
ACAD_PROXY_OBJECT
  5
3C
102
{ACAD_REACTORS
330
2A
102
}
330
2A
100
AcDbProxyObject
 90
      499
 91
      501
 93
      444
310
42D3DD995C9A185B99D3D999915409028333333333333E33F0000000000000F9010790141107004050150941D405064090741402480A0350
1001
ACAD
1000
AcDbSavedByObjectVersion
1070
     0
  0
ACAD_PROXY_OBJECT
  5
33
102
{ACAD_REACTORS
330
2A
102
}
330
2A
100
AcDbProxyObject
 90
      499
 91
      501
 93
      428
310
425499585B1A5CDD1A58D08409038333333333333E33F0000000000000F9010740A907004050150800405405064090740C02480A1B40
1001
ACAD
1000
AcDbSavedByObjectVersion
1070
     0
  0
ACAD_PROXY_OBJECT
  5
42
102
{ACAD_REACTORS
330
2A
102
}
330
2A
100
AcDbProxyObject
 90
      499
 91
      501
 93
      420
310
4194DA1859195911B40902404333333333333E33F0000000000000F9010740A41107004050150800405405064090840C02480A0B40
1001
ACAD
1000
AcDbSavedByObjectVersion
1070
     0
  0
ACAD_PROXY_OBJECT
  5
41
102
{ACAD_REACTORS
330
2A
102
}
330
2A
100
AcDbProxyObject
 90
      499
 91
      501
 93
      516
310
4454DA18591959081DDA5D1A08195919D95CD1A40902404333333333333E33F0000000000000F901074090142907004050250800405405064090740C02480A0B40
1001
ACAD
1000
AcDbSavedByObjectVersion
1070
     0
  0
ACAD_PROXY_OBJECT
  5
3E
102
{ACAD_REACTORS
330
2A
102
}
330
2A
100
AcDbProxyObject
 90
      499
 91
      501
 93
      532
310
4394DA1859195CC81BD98811DC985E5174090240C333333333333E33F0000000000000F901079024090741D01000000000000111010841D405064090740C02480A0340
1001
ACAD
1000
AcDbSavedByObjectVersion
1070
     0
  0
ACAD_PROXY_OBJECT
  5
3F
102
{ACAD_REACTORS
330
2A
102
}
330
2A
100
AcDbProxyObject
 90
      499
 91
      501
 93
      476
310
41D4DAD95D18DA1E51840502408333333333333E33F0000000000000F901079024090741D01000000000000111010B41D405064090741802480A0340
1001
ACAD
1000
AcDbSavedByObjectVersion
1070
     0
  0
ACAD_PROXY_OBJECT
  5
37
102
{ACAD_REACTORS
330
2A
102
}
330
2A
100
AcDbProxyObject
 90
      499
 91
      501
 93
      412
310
41D51A1A58DAD95B90D409028333333333333E33F0000000000000F9010790141107004050150C41D405064090741402480A0350
1001
ACAD
1000
AcDbSavedByObjectVersion
1070
     0
  0
ACAD_PROXY_OBJECT
  5
30
102
{ACAD_REACTORS
330
2A
102
}
330
2A
100
AcDbProxyObject
 90
      499
 91
      501
 93
      420
310
4255DA5C99599C985B595059028333333333333E33F0000000000000F90107901411070040501600405405064090740C02480A0340
1001
ACAD
1000
AcDbSavedByObjectVersion
1070
     0
  0
ACAD_PROXY_OBJECT
  5
40
102
{ACAD_REACTORS
330
2A
102
}
330
2A
100
AcDbProxyObject
 90
      499
 91
      501
 93
      404
310
41560B54985E51940902404000000000000E03F0000000000000F9010740501907004050150841D405064090740C02480A1B40
1001
ACAD
1000
AcDbSavedByObjectVersion
1070
     0
  0
XRECORD
  5
1C3
102
{ACAD_REACTORS
330
1BA
102
}
330
1BA
100
AcDbXrecord
 90
        0
  0
XRECORD
  5
1D9
102
{ACAD_REACTORS
330
1BA
102
}
330
1BA
100
AcDbXrecord
1000
DSTYLE
1002
{
1070
   171
 70
     2
1070
   143
 40
25.4
1070
   274
 70
     2
1070
    41
 40
0.18
1070
   141
 40
0.09
1070
   271
 70
     4
1070
    43
 40
0.38
1070
   278
 70
    46
1070
    44
 40
0.18
1070
    42
 40
0.0625
1070
   147
 40
0.09
1070
    77
 70
     0
1070
   272
 70
     4
1070
    73
 70
     1
1070
   172
 70
     0
1070
    74
 70
     1
1070
   283
 70
     1
1070
   340
340
11
1070
   140
 40
0.18
1070
   284
 70
     0
1070
    78
 70
     0
1002
}
  0
XRECORD
  5
1C4
102
{ACAD_REACTORS
330
1BA
102
}
330
1BA
100
AcDbXrecord
  1
{C27D9004-FE93-4BEC-B6CE-45CA9C2A37C8}
  0
XRECORD
  5
1BD
102
{ACAD_REACTORS
330
1BA
102
}
330
1BA
100
AcDbXrecord
  1

  0
XRECORD
  5
1C2
102
{ACAD_REACTORS
330
1BA
102
}
330
1BA
100
AcDbXrecord
 90
        4
  0
XRECORD
  5
1BF
102
{ACAD_REACTORS
330
1BA
102
}
330
1BA
100
AcDbXrecord
340
1A
  0
XRECORD
  5
1C1
102
{ACAD_REACTORS
330
1BA
102
}
330
1BA
100
AcDbXrecord
 90
    10781
  0
XRECORD
  5
1C0
102
{ACAD_REACTORS
330
1BA
102
}
330
1BA
100
AcDbXrecord
340
19
  0
XRECORD
  5
1C6
102
{ACAD_REACTORS
330
1BA
102
}
330
1BA
100
AcDbXrecord
 40
0.0
  0
XRECORD
  5
1C9
102
{ACAD_REACTORS
330
1BA
102
}
330
1BA
100
AcDbXrecord
340
0
  0
XRECORD
  5
1CF
102
{ACAD_REACTORS
330
1BA
102
}
330
1BA
100
AcDbXrecord
 10
0.0
 20
0.0
 30
0.0
  0
XRECORD
  5
1CB
102
{ACAD_REACTORS
330
1BA
102
}
330
1BA
100
AcDbXrecord
 10
0.0
 20
0.0
 30
0.0
  0
XRECORD
  5
1CE
102
{ACAD_REACTORS
330
1BA
102
}
330
1BA
100
AcDbXrecord
 10
0.0
 20
0.0
 30
0.0
  0
XRECORD
  5
1CC
102
{ACAD_REACTORS
330
1BA
102
}
330
1BA
100
AcDbXrecord
 10
0.0
 20
0.0
 30
0.0
  0
XRECORD
  5
1CD
102
{ACAD_REACTORS
330
1BA
102
}
330
1BA
100
AcDbXrecord
 10
0.0
 20
0.0
 30
0.0
  0
XRECORD
  5
1CA
102
{ACAD_REACTORS
330
1BA
102
}
330
1BA
100
AcDbXrecord
 10
0.0
 20
0.0
 30
0.0
  0
XRECORD
  5
1C7
102
{ACAD_REACTORS
330
1BA
102
}
330
1BA
100
AcDbXrecord
340
0
  0
XRECORD
  5
1C8
102
{ACAD_REACTORS
330
1BA
102
}
330
1BA
100
AcDbXrecord
 70
     0
  0
XRECORD
  5
1BE
102
{ACAD_REACTORS
330
1BA
102
}
330
1BA
100
AcDbXrecord
  1

  0
XRECORD
  5
1BB
102
{ACAD_REACTORS
330
1BA
102
}
330
1BA
100
AcDbXrecord
 90
        1
  0
XRECORD
  5
1BC
102
{ACAD_REACTORS
330
1BA
102
}
330
1BA
100
AcDbXrecord
 90
       70
  0
XRECORD
  5
1D2
102
{ACAD_REACTORS
330
1BA
102
}
330
1BA
100
AcDbXrecord
340
0
  0
XRECORD
  5
1D8
102
{ACAD_REACTORS
330
1BA
102
}
330
1BA
100
AcDbXrecord
 10
0.0
 20
0.0
 30
0.0
  0
XRECORD
  5
1D4
102
{ACAD_REACTORS
330
1BA
102
}
330
1BA
100
AcDbXrecord
 10
0.0
 20
0.0
 30
0.0
  0
XRECORD
  5
1D7
102
{ACAD_REACTORS
330
1BA
102
}
330
1BA
100
AcDbXrecord
 10
0.0
 20
0.0
 30
0.0
  0
XRECORD
  5
1D5
102
{ACAD_REACTORS
330
1BA
102
}
330
1BA
100
AcDbXrecord
 10
0.0
 20
0.0
 30
0.0
  0
XRECORD
  5
1D6
102
{ACAD_REACTORS
330
1BA
102
}
330
1BA
100
AcDbXrecord
 10
0.0
 20
0.0
 30
0.0
  0
XRECORD
  5
1D3
102
{ACAD_REACTORS
330
1BA
102
}
330
1BA
100
AcDbXrecord
 10
0.0
 20
0.0
 30
0.0
  0
XRECORD
  5
1D0
102
{ACAD_REACTORS
330
1BA
102
}
330
1BA
100
AcDbXrecord
340
0
  0
XRECORD
  5
1D1
102
{ACAD_REACTORS
330
1BA
102
}
330
1BA
100
AcDbXrecord
 70
     0
  0
XRECORD
  5
1C5
102
{ACAD_REACTORS
330
1BA
102
}
330
1BA
100
AcDbXrecord
  1
{FAEB1C32-E019-11D5-929B-00C0DF256EC4}
  0
DICTIONARYVAR
  5
1E3
102
{ACAD_REACTORS
330
1DA
102
}
330
1DA
100
DictionaryVariables
280
     0
  1
1:1
  0
DICTIONARYVAR
  5
1DF
102
{ACAD_REACTORS
330
1DA
102
}
330
1DA
100
DictionaryVariables
280
     0
  1
2
  0
DICTIONARYVAR
  5
1E0
102
{ACAD_REACTORS
330
1DA
102
}
330
1DA
100
DictionaryVariables
280
     0
  1
1
  0
DICTIONARYVAR
  5
1E4
102
{ACAD_REACTORS
330
1DA
102
}
330
1DA
100
DictionaryVariables
280
     0
  1
1
  0
DICTIONARY
  5
1E7
330
45
100
AcDbDictionary
280
     1
  3
ACAD_XREC_ROUNDTRIP
360
1E8
  0
DICTIONARY
  5
1E5
330
44
100
AcDbDictionary
280
     1
  3
ACAD_XREC_ROUNDTRIP
360
1E6
  0
DICTIONARY
  5
1E9
330
46
100
AcDbDictionary
280
     1
  3
ACAD_XREC_ROUNDTRIP
360
1EA
  0
XRECORD
  5
1E8
102
{ACAD_REACTORS
330
1E7
102
}
330
1E7
100
AcDbXrecord
102
MATERIAL
148
0.0
149
0.0
149
0.0
 93
        0
 94
      127
282
     0
 72
     1
 77
     1
171
     1
175
     1
179
     1
273
     0
  0
XRECORD
  5
1E6
102
{ACAD_REACTORS
330
1E5
102
}
330
1E5
100
AcDbXrecord
102
MATERIAL
148
0.0
149
0.0
149
0.0
 93
        0
 94
      127
282
     0
 72
     1
 77
     1
171
     1
175
     1
179
     1
273
     0
  0
XRECORD
  5
1EA
102
{ACAD_REACTORS
330
1E9
102
}
330
1E9
100
AcDbXrecord
102
MATERIAL
148
0.0
149
0.0
149
0.0
 93
        0
 94
      127
282
     0
 72
     1
 77
     1
171
     1
175
     1
179
     1
273
     0
  0
ENDSEC
  0
EOF
